<?xml version="1.0" encoding="UTF-8"?>
<!DOCTYPE svg PUBLIC "-//W3C//DTD SVG 1.1//EN" "http://www.w3.org/Graphics/SVG/1.1/DTD/svg11.dtd">
<!-- Creator: CorelDRAW X6 -->
<svg xmlns="http://www.w3.org/2000/svg" xml:space="preserve" width="5839px" height="3418px" version="1.1" style="shape-rendering:geometricPrecision; text-rendering:geometricPrecision; image-rendering:optimizeQuality; fill-rule:evenodd; clip-rule:evenodd"
viewBox="0 0 5839000 3418000"
 xmlns:xlink="http://www.w3.org/1999/xlink">
 <defs>
  <style type="text/css">
   <![CDATA[
    .str22 {stroke:#6E4276;stroke-width:2812.21}
    .str3 {stroke:#865190;stroke-width:2812.21}
    .str17 {stroke:#F4154D;stroke-width:2812.21}
    .str2 {stroke:white;stroke-width:6882.28;stroke-linecap:round;stroke-linejoin:round}
    .str21 {stroke:#765441;stroke-width:7321.65;stroke-linecap:round;stroke-linejoin:round}
    .str19 {stroke:#DA9F74;stroke-width:7321.65;stroke-linecap:round;stroke-linejoin:round}
    .str13 {stroke:#D66D78;stroke-width:7524.8;stroke-linecap:round;stroke-linejoin:round}
    .str6 {stroke:white;stroke-width:7599.21;stroke-linecap:round;stroke-linejoin:round}
    .str0 {stroke:#865190;stroke-width:7606.3}
    .str5 {stroke:white;stroke-width:7983.07;stroke-linecap:round;stroke-linejoin:round}
    .str8 {stroke:white;stroke-width:8775.59;stroke-linecap:round;stroke-linejoin:round}
    .str7 {stroke:white;stroke-width:9525.59;stroke-linecap:round;stroke-linejoin:round}
    .str20 {stroke:#43302D;stroke-width:9765.36;stroke-linecap:round;stroke-linejoin:round}
    .str18 {stroke:#561E15;stroke-width:9765.36;stroke-linecap:round;stroke-linejoin:round}
    .str14 {stroke:#6E4276;stroke-width:9765.36}
    .str1 {stroke:#865190;stroke-width:9765.36}
    .str15 {stroke:#E6E6F0;stroke-width:9765.36}
    .str16 {stroke:#E6E6F0;stroke-width:9765.36;stroke-linecap:round;stroke-linejoin:round}
    .str10 {stroke:#F5295C;stroke-width:9765.36}
    .str12 {stroke:#561E15;stroke-width:10031.1;stroke-linecap:round;stroke-linejoin:round}
    .str4 {stroke:white;stroke-width:11097.6;stroke-linecap:round;stroke-linejoin:round}
    .str9 {stroke:#865190;stroke-width:19529.5;stroke-linecap:round;stroke-linejoin:round}
    .str11 {stroke:#F4154D;stroke-width:19529.5;stroke-opacity:0.239216}
    .str23 {stroke:white;stroke-width:19529.5;stroke-linecap:round;stroke-linejoin:round}
    .str24 {stroke:white;stroke-width:21641.3;stroke-linecap:round;stroke-linejoin:round}
    .fil0 {fill:none}
    .fil15 {fill:#0E1235}
    .fil28 {fill:#43302D}
    .fil26 {fill:#60423D}
    .fil30 {fill:#63DE5D}
    .fil17 {fill:#6E4276}
    .fil29 {fill:#765441}
    .fil1 {fill:#865190}
    .fil14 {fill:#8F4A3F}
    .fil16 {fill:#9A5449}
    .fil27 {fill:#BC8567}
    .fil21 {fill:#D38D00}
    .fil23 {fill:#D60A3D}
    .fil25 {fill:#DA9F74}
    .fil5 {fill:#E6E6F0}
    .fil31 {fill:#EC0B43}
    .fil4 {fill:#EFEFF7}
    .fil11 {fill:#F2F2FA}
    .fil20 {fill:#F4154D}
    .fil2 {fill:#F5295C}
    .fil7 {fill:#FAFAFF}
    .fil12 {fill:#FBD5D9}
    .fil22 {fill:#FCDDC6}
    .fil19 {fill:#FEC9CF}
    .fil18 {fill:#FEFEFE}
    .fil13 {fill:#FFA4AD}
    .fil10 {fill:#FFCAD0}
    .fil24 {fill:#FFDFC8}
    .fil3 {fill:white}
    .fil8 {fill:black;fill-opacity:0.000000}
    .fil9 {fill:#EFEFF7;fill-opacity:0.000000}
    .fil6 {fill:#E6E6F0;fill-opacity:0.239216}
   ]]>
  </style>
    <clipPath id="id0">
     <path d="M3477648 389034l0 1530755c0,46166 -30919,83551 -69137,83551l-1907508 0c-17166,0 -32891,-7520 -44987,-20079 -14745,-15365 -24175,-38023 -24175,-63472l0 -1530755c0,-46178 31026,-83550 69162,-83550l1907508 0c17157,0 32973,7525 44986,20093 14828,15357 24151,38011 24151,63457l0 0z"/>
    </clipPath>
    <clipPath id="id1">
     <path d="M3477648 389034l0 1530755c0,46166 -30919,83551 -69137,83551l-1907508 0c-17166,0 -32891,-7520 -44987,-20079 -14745,-15365 -24175,-38023 -24175,-63472l0 -1530755c0,-46178 31026,-83550 69162,-83550l1907508 0c17157,0 32973,7525 44986,20093 14828,15357 24151,38011 24151,63457l0 0z"/>
    </clipPath>
    <clipPath id="id2">
     <path d="M3477648 389034l0 1530755c0,46166 -30919,83551 -69137,83551l-1907508 0c-17166,0 -32891,-7520 -44987,-20079 -14745,-15365 -24175,-38023 -24175,-63472l0 -1530755c0,-46178 31026,-83550 69162,-83550l1907508 0c17157,0 32973,7525 44986,20093 14828,15357 24151,38011 24151,63457l0 0z"/>
    </clipPath>
    <clipPath id="id3">
     <path d="M3477648 389034l0 1530755c0,46166 -30919,83551 -69137,83551l-1907508 0c-17166,0 -32891,-7520 -44987,-20079 -14745,-15365 -24175,-38023 -24175,-63472l0 -1530755c0,-46178 31026,-83550 69162,-83550l1907508 0c17157,0 32973,7525 44986,20093 14828,15357 24151,38011 24151,63457l0 0z"/>
    </clipPath>
 </defs>
 <g id="Layer_x0020_1">
  <metadata id="CorelCorpID_0Corel-Layer"/>
  <g id="_188308360">
   <path class="fil0 str0" d="M2980556 3400289c11846,-62140 48619,-119119 100253,-155487"/>
   <path class="fil0 str0" d="M2978953 3417767c2228,-51887 22253,-176803 69622,-254996"/>
   <path class="fil0 str0" d="M2979669 3411355c8191,-92550 7478,-194819 -6953,-286654"/>
   <path class="fil1 str1" d="M3088353 3220633l0 0c-456,813 -915,1619 -1375,2444 -6431,11375 -12869,22728 -20797,33469 2078,-691 4278,-1531 6562,-2450 1150,-456 2343,-944 3553,-1434 2510,-1022 5096,-2078 7547,-2996 3644,-1359 7422,-2575 10946,-3097l0 0c16344,-2400 33034,-1747 49065,344l0 0c12509,1631 24987,4113 37263,6550 3981,794 7956,1584 11890,2337 16213,3093 32157,5662 48228,5878l0 0c9119,125 18807,-1065 26987,-4209 8157,-3144 14440,-8075 17626,-15272l13 -13c5263,-11772 -159,-27300 -11134,-36428l-6 -13c-10869,-9110 -25772,-12731 -41150,-14216l0 0c-5594,-547 -11191,-831 -16922,-1122 -2119,-106 -4247,-219 -6406,-331 -7910,-450 -16012,-1084 -24040,-2616l-6 -13c-4794,-925 -9531,-2159 -14131,-3387 -731,-197 -1453,-391 -2166,-587 -3878,-1044 -7646,-2060 -11415,-2919 -8916,-2041 -17275,-3076 -25456,-1485l-44672 41565 -5 -1zm0 0l13 -19m-13 19l13 -19m0 0c10946,-19513 25046,-37732 44662,-41546l-44662 41546z"/>
   <path class="fil1 str1" d="M3042600 3173726c6103,-5106 11884,-11438 17869,-18200 781,-878 1553,-1760 2331,-2647 7196,-8163 14753,-16747 23153,-23434 23013,-18397 50890,-32607 80926,-34928l-124282 79209 2 -1zm0 0c304,-1760 759,-3800 1388,-6116 2138,-7869 5928,-17907 10263,-28276 6569,-15703 14157,-31628 18775,-41322 1487,-3116 2669,-5588 3410,-7206 15222,-33053 38715,-64081 71934,-73388l0 0c14096,-3944 28775,-3790 44115,-2422 5235,469 10631,1084 16109,1709 10215,1181 20713,2381 30915,2675l19 0c4912,119 9913,38 14793,-40 2381,-38 4734,-78 7031,-87 7143,-47 14060,128 20844,1143 13544,2041 26434,8104 32759,18797l13 13c4881,8200 5144,18231 1796,27885 -3359,9676 -10222,18526 -18826,23972 -17675,11200 -40378,12000 -62650,9528 -6454,-712 -12666,-1631 -18963,-2569 -4787,-700 -9628,-1413 -14666,-2060 -11356,-1443 -22978,-2381 -34772,-1453l-124291 79219 2 -2zm-213 5732c0,0 0,-13 0,-22l0 22z"/>
   <path class="fil1 str1" d="M2994969 3035696l0 13c2859,17506 -53,35491 -5541,52834 -387,1240 -856,2806 -1407,4591 -1637,5466 -3940,13081 -6775,20290 -1876,4766 -3875,9059 -5916,12203 -1016,1572 -1954,2706 -2766,3446 -831,754 -1300,891 -1388,909l-6 0c-1016,197 -3078,-97 -6366,-1737 -3116,-1550 -6604,-3944 -10137,-6735 -7050,-5569 -13669,-12256 -16881,-15604 -9813,-10341 -17626,-22519 -22450,-35828l-13 -19c-5643,-15372 -7593,-31794 -9547,-48909 -40,-372 -81,-754 -128,-1126 -1881,-16569 -3837,-33772 -9528,-50109l0 0c-6472,-18503 -17497,-35043 -28063,-50890 -2776,-4160 -5519,-8272 -8134,-12363 -12843,-20034 -23706,-41469 -23541,-63938 165,-22515 14472,-45169 34975,-48809l13 0c13522,-2431 27904,3250 39809,12281l6 0c16825,12706 29109,31278 34363,51781 3156,12412 3769,25331 4372,38835l22 547c594,13153 1200,26872 4500,40206 4094,16728 12209,32078 19988,46785 587,1122 1185,2231 1769,3347 8406,15953 16065,31284 18769,48004l0 -6z"/>
   <path class="fil0 str0" d="M2978769 3402611c-6053,-81756 -27066,-174128 -72735,-242153"/>
   <path class="fil1 str1" d="M2895022 3098958l0 22c6543,18237 10572,37346 13944,56603l13 19c175,1016 488,2313 790,3604 119,497 226,984 331,1453 428,1857 813,3741 1025,5541 203,1834 197,3287 -19,4344 -197,1006 -497,1259 -587,1319l0 0c-40,40 -403,294 -1650,106 -1263,-184 -2881,-759 -4747,-1728 -3700,-1893 -7325,-4734 -9159,-6366 -3281,-3006 -6188,-6494 -9112,-10276 -1022,-1337 -2096,-2759 -3181,-4219 -1884,-2500 -3828,-5104 -5791,-7519l0 -6c-26484,-32556 -68303,-48209 -108697,-54000 -20212,-2900 -40544,-3663 -60716,-3981 -5331,-81 -10644,-137 -15934,-197 -14831,-159 -29537,-304 -44244,-1126l-25 0c-9154,-446 -17394,-1443 -23493,-5778 -7969,-5704 -11290,-17372 -8846,-28016 2428,-10525 9684,-19840 18628,-27526l0 0c19750,-16984 45991,-25547 72463,-27272 26478,-1737 53225,3025 79344,10097l0 0c25169,6807 49707,15944 69004,32182 19069,16119 32115,38628 40659,62715l0 4z"/>
   <path class="fil0 str0" d="M2977078 3411355c-3553,-71328 -35609,-140884 -87428,-189919"/>
   <path class="fil1 str1" d="M2862504 3184017c-17919,-9528 -38206,-15741 -58225,-21353l58225 21353zm0 0c1359,722 2578,1375 3800,2113l-13 0 119 66c7791,4407 12987,12069 18706,20800 653,1003 1669,3044 3038,5994 422,891 860,1857 1319,2854 966,2113 2013,4397 3076,6604 325,672 657,1354 987,2031 -24100,-6604 -50619,-6359 -73822,-6135l-272 0c0,0 0,0 0,0m43058 -34324l-43059 34322m0 0c-31734,272 -63475,6175 -93150,17626l-19 13c-3938,1531 -7772,3122 -11563,4694 -14434,5996 -28044,11641 -42750,12454 -4872,231 -10063,-469 -14254,-2237 -4141,-1756 -6894,-4365 -7978,-7804 -1719,-5626 1250,-12275 6278,-18984l0 0m163440 -5761l-163437 5759m0 0l13 -19m-13 19l13 -19m-1 0c9938,-13384 22769,-24359 36019,-35656m-36019 35656l36019 -35656m0 0c17275,-14687 34390,-28809 54925,-32800l-54925 32800zm208041 38041c-2096,-3800 -4238,-8459 -6141,-12606 -1893,-4113 -3553,-7734 -4734,-9541 -5607,-8554 -11396,-17294 -20391,-22378 -1337,-800 -2666,-1513 -4000,-2228l35265 46753zm-153116 -70844c18444,-3585 37709,1544 57315,7041l-57315 -7041z"/>
   <path class="fil1 str1" d="M5146581 3121621l0 13c-10460,10359 -23356,16344 -36106,21347 -3116,1228 -6213,2391 -9266,3534 -9700,3638 -19022,7143 -27681,12087 -24450,13984 -42103,39194 -52719,66281 -125,322 -253,647 -381,966 -3976,10215 -9706,24887 -12881,39275 -1631,7419 -2537,14546 -2246,20797 294,6269 1769,11250 4504,14812l19 19c6194,8153 17096,9853 30625,7628 13310,-2206 27291,-7950 37407,-12209l13 0c3697,-1550 7447,-3181 11250,-4840 19603,-8537 40416,-17597 62087,-18534 23463,-1035 45416,7431 65522,15507l547 213c20212,8115 39896,16012 60781,16100 20937,87 43284,-9891 52796,-28375 3997,-7819 5616,-16600 7375,-26109 322,-1728 647,-3475 984,-5250 2159,-11153 5091,-23066 13644,-32535l6 0c8769,-9706 20290,-13616 31941,-15241 8378,-1175 17341,-1209 25678,-1250 3047,-13 6004,-28 8828,-97l13 0c23425,-522 47503,-6837 65616,-22041l6 -13c18200,-15181 28857,-40356 23094,-61291l-13 0c-4766,-17331 -19247,-29694 -34593,-42076l0 -6c-21163,-17115 -43303,-33454 -68800,-31734 -9078,653 -18031,3572 -27672,6716l-712 237c-9687,3163 -20094,6490 -30904,6881 -13641,481 -25975,-3691 -37310,-9469 -8590,-4397 -16922,-9885 -24841,-15110 -2404,-1578 -4766,-3144 -7090,-4646 -20396,-13141 -44272,-22713 -64853,-12809l-64659 111226 -5 -5zm0 0c14713,-14656 21325,-34994 27331,-53497m-27331 53497l27331 -53497m1 0c850,-2609 1678,-5184 2528,-7694m-2528 7694l2528 -7694m0 -1c7031,-20943 17022,-41450 34791,-50032l-34791 50032z"/>
   <path class="fil0 str2" d="M5010204 3301295c118509,-101909 256785,-169400 406012,-198110"/>
   <path class="fil1 str3" d="M5127375 3144558c2759,-33615 -3553,-68650 7478,-100485 19678,-56713 87881,-86307 104978,-143819 20476,-68744 -42028,-138909 -31160,-209787 4540,-29872 21725,-56176 32406,-84435 10684,-28266 13447,-63659 -7303,-85681 -21725,-23003 -61162,-20328 -86987,-1963 -25819,18369 -40690,48150 -52796,77482 -12025,29332 -22616,60004 -43006,84347 -37134,44313 -103912,63750 -124209,117866 -20653,55100 18435,113413 25375,171813 5256,44222 -8193,88269 -20212,131241 -11931,42976 -22528,88447 -11569,131594 14597,57513 66328,94160 115922,57241 49056,-36285 86013,-82206 91084,-145413l1 0z"/>
   <path class="fil0 str4" d="M5004859 3304061c-19675,-205247 25378,-427876 130622,-605128"/>
   <path class="fil1 str3" d="M4873803 3226667c-21638,-30585 -34019,-68828 -63400,-92096 -33659,-26757 -80313,-27019 -123050,-30494 -42828,-3475 -91084,-15604 -110934,-53763 -10866,-20953 -10866,-45826 -18435,-68115 -8366,-24519 -25466,-44850 -37485,-67769 -11931,-22906 -18250,-52063 -4365,-73906 14072,-22116 44875,-28628 70078,-21490 25191,7126 45853,24878 64728,43059 18878,18190 37310,37631 60550,49576 38550,19703 84315,16050 127584,14176 43276,-1787 90465,0 123947,27647 27507,22728 40063,58487 51285,92457 16196,48587 32759,97000 48519,145775 9706,29956 28228,75869 -2931,99410 -54944,41459 -154394,-19791 -186087,-64466l-4 0z"/>
   <path class="fil0 str5" d="M5042519 3292917c-68731,-159775 -214222,-295831 -388378,-355831"/>
   <path class="fil1 str3" d="M1082419 3285579c19678,-29334 31069,-66957 57513,-88447 30369,-24519 72119,-21309 110581,-21756 38385,-353 81741,-9006 99900,-46097 9978,-20319 10069,-45463 17096,-67491 7654,-24159 23150,-43422 34107,-65706 10857,-22293 16737,-51272 4540,-74366 -12469,-23356 -39987,-32182 -62600,-26835 -22612,5350 -41313,21756 -58310,38696 -17013,16941 -33659,35219 -54676,45560 -34719,17119 -75682,9978 -114503,4903 -38812,-4990 -81112,-6604 -111294,18813 -24841,20943 -36325,56166 -46743,89597 -14869,47884 -30097,95584 -44607,143643 -8907,29597 -25910,74535 1869,100650 48703,46187 138363,-8378 167128,-51172l-1 7z"/>
   <path class="fil0 str6" d="M930693 3340139c62859,-156376 194278,-283078 350810,-330950"/>
   <path class="fil1 str3" d="M844506 3203468c-2138,-30944 2850,-63128 -5969,-92463 -15759,-52162 -70426,-79354 -84141,-132232 -16381,-63216 33657,-127766 25019,-193019 -3650,-27469 -17450,-51625 -25997,-77666 -8550,-26031 -10775,-58578 5875,-78809 17453,-21228 48972,-18728 69716,-1787 20656,16941 32588,44313 42294,71241 9613,26922 18165,55187 34460,77565 29738,40750 83246,58578 99454,108416 16563,50738 -14781,104316 -20297,158078 -4187,40747 6581,81228 16196,120725 9619,39497 18072,81306 9266,121078 -11669,52876 -53157,86572 -92872,52688 -39266,-33431 -68913,-75697 -73010,-133822l7 7z"/>
   <path class="fil0 str7" d="M942625 3350130c15759,-188747 -20391,-393543 -104622,-556619"/>
   <path class="fil1 str1" d="M338774 3052520c-7215,30934 7743,68294 31341,91472 23597,23269 54226,34059 83337,36647l76215 25143 3850 -3006c-4,0 -4,0 -4,0 -10359,-13259 -23956,-19372 -38028,-22487 -10141,-2246 -20972,-3006 -31075,-3712 -3622,-253 -7150,-497 -10519,-800l-13 0c-28269,-2510 -57737,-12969 -80341,-35259l-6 -13c-22728,-22331 -36731,-58028 -30006,-86881m-4753 -1104l4753 1109c0,0 0,0 0,-6m-4753 -1103l4753 1103c0,0 0,0 0,0m-4753 -1103c5962,-25416 24754,-42175 42647,-57425 24841,-21219 52887,-43422 86275,-38696 11759,1650 23288,6572 34796,11491 12197,5206 24376,10409 36790,11687m-195756 74047c5550,-23641 23047,-39459 41060,-54807l4 -13c25143,-21472 51537,-41937 82422,-37572l6 13c11104,1550 22107,6247 33841,11256l746 325c11734,5009 24250,10281 37172,11619m0 1l507 -4863m-507 4863c16331,1690 31037,-2966 44537,-9891 10225,-5244 20096,-11985 29516,-18416 2872,-1954 5704,-3887 8487,-5744l13 -13c24216,-16196 52937,-27428 78484,-12253m-161037 46312c0,0 0,0 4,0l503 -4863m0 0c26519,2757 48963,-12566 70612,-27350 2916,-1990 5819,-3972 8715,-5897 24397,-16316 55472,-29157 83696,-12400m-2493 4201c-4,0 -6,0 -6,0l2503 -4200m-2493 4200c11031,6591 19831,17157 27025,29890 7185,12722 12606,27322 17013,41626l4 13c1107,3553 2200,7175 3304,10828 7688,25481 15925,52785 33644,73213m-80988 -155568c0,0 0,0 0,0l2493 -4200m0 0c24040,14356 37306,45384 46209,74278l32284 85487m0 1c12578,14569 28022,23541 43522,31287 3788,1893 7553,3697 11290,5493 11759,5643 23172,11131 33794,18503l6 13c30281,20953 52416,56819 65937,94625 178,497 359,1006 543,1525 5003,14043 12243,34350 16431,54154 2166,10263 3469,20184 3266,28881 -203,8763 -1925,15781 -5322,20694l-13 19c-7419,10822 -20641,12243 -37081,8176 -16213,-4016 -33331,-12896 -45638,-19441l-4 -13c-4413,-2343 -8890,-4785 -13407,-7257 -9765,-5341 -19722,-10787 -29675,-15497 -14656,-6940 -29835,-12556 -45556,-14341l-4 0c-28153,-3184 -54419,6503 -78456,15913l-712 272c-24091,9444 -47600,18653 -72878,17050 -25316,-1603 -53203,-16804 -65594,-43540l219550 -196519 -2 2zm0 0l3687 -3203 -3693 3197c4,6 4,6 6,6zm84448 248231c-4534,-2404 -9076,-4893 -13625,-7375 -23941,-13107 -48135,-26334 -73276,-29184 -26800,-3031 -52000,6154 -76128,15604l-1162 456c-23763,9306 -48150,18866 -74522,17193 -26800,-1688 -56447,-17740 -69712,-46359l308425 49663 0 2zm0 0c24488,13016 70519,36731 89037,9712l-89037 -9712z"/>
   <path class="fil0 str8" d="M949037 3347992c-145219,-146759 -313591,-248572 -494159,-298859"/>
   <path class="fil0 str9" d="M5110113 689564c0,28266 -22878,51178 -51110,51178 -28219,0 -51106,-22916 -51106,-51178 0,-28263 22887,-51175 51106,-51175 28143,0 51110,22916 51110,51175z"/>
   <line class="fil0 str9" x1="5095951" y1="724870" x2="5132010" y2= "761063" />
   <line class="fil0 str9" x1="3110572" y1="233" x2="3164340" y2= "54076" />
   <line class="fil0 str9" x1="3164340" y1="233" x2="3110572" y2= "54076" />
   <line class="fil0 str9" x1="3881241" y1="3100023" x2="3935004" y2= "3153877" />
   <line class="fil0 str9" x1="3935004" y1="3100023" x2="3881241" y2= "3153877" />
   <line class="fil0 str9" x1="468984" y1="2386511" x2="468984" y2= "2462654" />
   <line class="fil0 str9" x1="507099" y1="2424571" x2="430971" y2= "2424571" />
   <path class="fil0 str9" d="M303612 1801908c0,25494 -20656,46276 -46209,46276 -25466,0 -46213,-20694 -46213,-46276 0,-25506 20660,-46272 46213,-46272 25553,84 46209,20766 46209,46272z"/>
   <path class="fil0 str9" d="M2221609 2921092c0,25506 -20660,46272 -46213,46272 -25456,0 -46206,-20678 -46206,-46272 0,-25494 20647,-46276 46206,-46276 25553,87 46213,20781 46213,46276z"/>
   <path class="fil0 str9" d="M5271144 2087720c0,25506 -20653,46276 -46206,46276 -25469,0 -46215,-20681 -46215,-46276 0,-25494 20662,-46272 46215,-46272 25553,87 46206,20778 46206,46272z"/>
   <path class="fil2 str10" d="M23656 990964c0,6572 -5316,11872 -11854,11872 -6541,0 -11854,-5300 -11854,-11872 0,-6562 5316,-11872 11854,-11872 6541,0 11854,5309 11854,11872z"/>
   <path class="fil2 str10" d="M140562 990964c0,6572 -5316,11872 -11854,11872 -6543,0 -11854,-5300 -11854,-11872 0,-6562 5316,-11872 11854,-11872 6541,0 11854,5309 11854,11872z"/>
   <path class="fil2 str10" d="M257381 990964c0,6572 -5316,11872 -11854,11872 -6543,0 -11854,-5300 -11854,-11872 0,-6562 5309,-11872 11854,-11872 6541,0 11854,5309 11854,11872z"/>
   <path class="fil2 str10" d="M374284 990964c0,6572 -5309,11872 -11854,11872 -6541,0 -11854,-5300 -11854,-11872 0,-6562 5316,-11872 11854,-11872 6543,0 11854,5309 11854,11872z"/>
   <path class="fil2 str10" d="M491102 990964c0,6572 -5316,11872 -11854,11872 -6541,0 -11854,-5300 -11854,-11872 0,-6562 5316,-11872 11854,-11872 6541,0 11854,5309 11854,11872z"/>
   <path class="fil2 str10" d="M608006 990964c0,6572 -5316,11872 -11854,11872 -6541,0 -11854,-5300 -11854,-11872 0,-6562 5316,-11872 11854,-11872 6541,0 11854,5309 11854,11872z"/>
   <path class="fil2 str10" d="M23656 1107941c0,6572 -5316,11872 -11854,11872 -6541,0 -11854,-5300 -11854,-11872 0,-6562 5316,-11872 11854,-11872 6541,0 11854,5309 11854,11872z"/>
   <path class="fil2 str10" d="M140562 1107941c0,6572 -5316,11872 -11854,11872 -6543,0 -11854,-5300 -11854,-11872 0,-6562 5309,-11872 11854,-11872 6541,0 11854,5309 11854,11872z"/>
   <path class="fil2 str10" d="M257381 1107941c0,6572 -5316,11872 -11854,11872 -6543,0 -11854,-5300 -11854,-11872 0,-6562 5309,-11872 11854,-11872 6541,0 11854,5309 11854,11872z"/>
   <path class="fil2 str10" d="M374284 1107941c0,6572 -5309,11872 -11854,11872 -6541,0 -11854,-5300 -11854,-11872 0,-6562 5316,-11872 11854,-11872 6543,0 11854,5309 11854,11872z"/>
   <path class="fil2 str10" d="M491102 1107941c0,6572 -5316,11872 -11854,11872 -6541,0 -11854,-5300 -11854,-11872 0,-6562 5316,-11872 11854,-11872 6541,0 11854,5309 11854,11872z"/>
   <path class="fil2 str10" d="M608006 1107941c0,6572 -5316,11872 -11854,11872 -6541,0 -11854,-5300 -11854,-11872 0,-6562 5316,-11872 11854,-11872 6541,0 11854,5309 11854,11872z"/>
   <path class="fil2 str10" d="M23656 1225008c0,6572 -5316,11884 -11854,11884 -6541,0 -11854,-5309 -11854,-11884 0,-6562 5316,-11872 11854,-11872 6541,0 11854,5309 11854,11872z"/>
   <path class="fil2 str10" d="M140562 1225008c0,6572 -5316,11884 -11854,11884 -6543,0 -11854,-5309 -11854,-11884 0,-6562 5316,-11872 11854,-11872 6541,0 11854,5309 11854,11872z"/>
   <path class="fil2 str10" d="M257381 1225008c0,6572 -5316,11884 -11854,11884 -6543,0 -11854,-5309 -11854,-11884 0,-6562 5309,-11872 11854,-11872 6541,0 11854,5309 11854,11872z"/>
   <path class="fil2 str10" d="M374284 1225008c0,6572 -5309,11884 -11854,11884 -6541,0 -11854,-5309 -11854,-11884 0,-6562 5316,-11872 11854,-11872 6543,0 11854,5309 11854,11872z"/>
   <path class="fil2 str10" d="M491102 1225008c0,6572 -5316,11884 -11854,11884 -6541,0 -11854,-5309 -11854,-11884 0,-6562 5316,-11872 11854,-11872 6541,0 11854,5309 11854,11872z"/>
   <path class="fil2 str10" d="M608006 1225008c0,6572 -5316,11884 -11854,11884 -6541,0 -11854,-5309 -11854,-11884 0,-6562 5316,-11872 11854,-11872 6541,0 11854,5309 11854,11872z"/>
   <path class="fil2 str10" d="M23656 1341985c0,6572 -5316,11884 -11854,11884 -6541,0 -11854,-5309 -11854,-11884 0,-6562 5316,-11872 11854,-11872 6541,0 11854,5309 11854,11872z"/>
   <path class="fil2 str10" d="M140562 1341985c0,6572 -5316,11884 -11854,11884 -6541,0 -11854,-5309 -11854,-11884 0,-6562 5316,-11872 11854,-11872 6541,0 11854,5309 11854,11872z"/>
   <path class="fil2 str10" d="M257381 1341985c0,6572 -5316,11884 -11854,11884 -6543,0 -11854,-5309 -11854,-11884 0,-6562 5309,-11872 11854,-11872 6541,0 11854,5309 11854,11872z"/>
   <path class="fil2 str10" d="M374284 1341985c0,6572 -5309,11884 -11854,11884 -6541,0 -11854,-5309 -11854,-11884 0,-6562 5316,-11872 11854,-11872 6543,0 11854,5309 11854,11872z"/>
   <path class="fil2 str10" d="M491102 1341985c0,6572 -5316,11884 -11854,11884 -6541,0 -11854,-5309 -11854,-11884 0,-6562 5316,-11872 11854,-11872 6541,0 11854,5309 11854,11872z"/>
   <path class="fil2 str10" d="M608006 1341985c0,6572 -5316,11884 -11854,11884 -6541,0 -11854,-5309 -11854,-11884 0,-6562 5316,-11872 11854,-11872 6541,0 11854,5309 11854,11872z"/>
   <path class="fil2 str10" d="M1827099 3195032c0,6569 -5316,11884 -11854,11884 -6543,0 -11854,-5316 -11854,-11884 0,-6562 5309,-11875 11854,-11875 6541,0 11854,5316 11854,11875z"/>
   <path class="fil2 str10" d="M1944000 3195032c0,6569 -5316,11884 -11854,11884 -6531,0 -11854,-5316 -11854,-11884 0,-6562 5322,-11875 11854,-11875 6541,0 11854,5316 11854,11875z"/>
   <path class="fil2 str10" d="M2060818 3195032c0,6569 -5309,11884 -11854,11884 -6541,0 -11854,-5316 -11854,-11884 0,-6562 5316,-11875 11854,-11875 6543,0 11854,5316 11854,11875z"/>
   <path class="fil2 str10" d="M2177727 3195032c0,6569 -5322,11884 -11854,11884 -6543,0 -11854,-5316 -11854,-11884 0,-6562 5309,-11875 11854,-11875 6531,0 11854,5316 11854,11875z"/>
   <path class="fil2 str10" d="M2294541 3195032c0,6569 -5309,11884 -11854,11884 -6543,0 -11854,-5316 -11854,-11884 0,-6562 5309,-11875 11854,-11875 6543,0 11854,5316 11854,11875z"/>
   <path class="fil2 str10" d="M1827099 3312098c0,6569 -5316,11884 -11854,11884 -6543,0 -11854,-5316 -11854,-11884 0,-6562 5309,-11875 11854,-11875 6541,0 11854,5316 11854,11875z"/>
   <path class="fil2 str10" d="M1944000 3312098c0,6569 -5316,11884 -11854,11884 -6531,0 -11854,-5316 -11854,-11884 0,-6562 5322,-11875 11854,-11875 6541,0 11854,5316 11854,11875z"/>
   <path class="fil2 str10" d="M2060818 3312098c0,6569 -5309,11884 -11854,11884 -6541,0 -11854,-5316 -11854,-11884 0,-6562 5316,-11875 11854,-11875 6543,0 11854,5316 11854,11875z"/>
   <path class="fil2 str10" d="M2177727 3312098c0,6569 -5322,11884 -11854,11884 -6543,0 -11854,-5316 -11854,-11884 0,-6562 5309,-11875 11854,-11875 6531,0 11854,5316 11854,11875z"/>
   <path class="fil2 str10" d="M2294541 3312098c0,6569 -5309,11884 -11854,11884 -6543,0 -11854,-5316 -11854,-11884 0,-6562 5309,-11875 11854,-11875 6543,0 11854,5316 11854,11875z"/>
   <path class="fil2 str10" d="M4788697 267755c0,6566 -5309,11875 -11854,11875 -6543,0 -11854,-5309 -11854,-11875 0,-6566 5309,-11875 11854,-11875 6543,0 11854,5309 11854,11875z"/>
   <path class="fil2 str10" d="M4905519 267755c0,6566 -5316,11875 -11854,11875 -6543,0 -11854,-5309 -11854,-11875 0,-6566 5309,-11875 11854,-11875 6541,0 11854,5309 11854,11875z"/>
   <path class="fil2 str10" d="M5022419 267755c0,6566 -5316,11875 -11854,11875 -6534,0 -11856,-5309 -11856,-11875 0,-6566 5322,-11875 11856,-11875 6541,0 11854,5309 11854,11875z"/>
   <path class="fil2 str10" d="M4788697 384820c0,6566 -5309,11875 -11854,11875 -6543,0 -11854,-5309 -11854,-11875 0,-6566 5309,-11875 11854,-11875 6543,0 11854,5309 11854,11875z"/>
   <path class="fil2 str10" d="M4905519 384820c0,6566 -5316,11875 -11854,11875 -6543,0 -11854,-5309 -11854,-11875 0,-6566 5309,-11875 11854,-11875 6541,0 11854,5309 11854,11875z"/>
   <path class="fil2 str10" d="M5022419 384820c0,6566 -5316,11875 -11854,11875 -6534,0 -11856,-5309 -11856,-11875 0,-6566 5322,-11875 11856,-11875 6541,0 11854,5309 11854,11875z"/>
   <path class="fil2 str10" d="M1729043 46285c0,6566 -5309,11875 -11854,11875 -6541,0 -11854,-5309 -11854,-11875 0,-6566 5316,-11875 11854,-11875 6543,0 11854,5309 11854,11875z"/>
   <path class="fil2 str10" d="M1845866 46285c0,6566 -5309,11875 -11854,11875 -6543,0 -11854,-5309 -11854,-11875 0,-6566 5309,-11875 11854,-11875 6543,0 11854,5309 11854,11875z"/>
   <path class="fil2 str10" d="M1962766 46285c0,6566 -5309,11875 -11854,11875 -6531,0 -11854,-5309 -11854,-11875 0,-6566 5322,-11875 11854,-11875 6543,0 11854,5309 11854,11875z"/>
   <path class="fil2 str10" d="M1729043 163351c0,6566 -5309,11875 -11854,11875 -6541,0 -11854,-5309 -11854,-11875 0,-6566 5316,-11875 11854,-11875 6543,0 11854,5309 11854,11875z"/>
   <path class="fil2 str10" d="M1845866 163351c0,6566 -5322,11875 -11854,11875 -6543,0 -11854,-5309 -11854,-11875 0,-6566 5309,-11875 11854,-11875 6543,0 11854,5309 11854,11875z"/>
   <path class="fil2 str10" d="M1962766 163351c0,6566 -5309,11875 -11854,11875 -6531,0 -11854,-5309 -11854,-11875 0,-6566 5322,-11875 11854,-11875 6543,0 11854,5309 11854,11875z"/>
   <path class="fil2 str10" d="M5839051 1849608c0,6562 -5309,11872 -11854,11872 -6543,0 -11854,-5309 -11854,-11872 0,-6562 5309,-11872 11854,-11872 6543,0 11854,5309 11854,11872z"/>
   <path class="fil2 str10" d="M5839051 1966674c0,6562 -5309,11872 -11854,11872 -6543,0 -11854,-5309 -11854,-11872 0,-6562 5309,-11872 11854,-11872 6543,0 11854,5309 11854,11872z"/>
   <path class="fil2 str10" d="M5839051 2083648c0,6562 -5309,11872 -11854,11872 -6543,0 -11854,-5309 -11854,-11872 0,-6562 5309,-11872 11854,-11872 6543,0 11854,5309 11854,11872z"/>
   <path class="fil2 str10" d="M5839051 2200714c0,6572 -5309,11872 -11854,11872 -6543,0 -11854,-5300 -11854,-11872 0,-6562 5309,-11872 11854,-11872 6543,0 11854,5309 11854,11872z"/>
   <path class="fil2 str10" d="M5839051 2317692c0,6572 -5309,11872 -11854,11872 -6543,0 -11854,-5300 -11854,-11872 0,-6562 5309,-11872 11854,-11872 6543,0 11854,5309 11854,11872z"/>
   <path class="fil2 str10" d="M5839051 2434758c0,6572 -5309,11884 -11854,11884 -6543,0 -11854,-5309 -11854,-11884 0,-6562 5309,-11872 11854,-11872 6543,0 11854,5309 11854,11872z"/>
   <path class="fil2 str10" d="M5839051 2551733c0,6572 -5309,11872 -11854,11872 -6543,0 -11854,-5300 -11854,-11872 0,-6562 5309,-11872 11854,-11872 6543,0 11854,5309 11854,11872z"/>
   <path class="fil2 str10" d="M5722144 1849608c0,6562 -5316,11872 -11854,11872 -6543,0 -11854,-5309 -11854,-11872 0,-6562 5309,-11872 11854,-11872 6541,0 11854,5309 11854,11872z"/>
   <path class="fil2 str10" d="M5722144 1966674c0,6562 -5316,11872 -11854,11872 -6543,0 -11854,-5309 -11854,-11872 0,-6562 5309,-11872 11854,-11872 6541,0 11854,5309 11854,11872z"/>
   <path class="fil2 str10" d="M5722144 2083648c0,6562 -5316,11872 -11854,11872 -6543,0 -11854,-5309 -11854,-11872 0,-6562 5309,-11872 11854,-11872 6541,0 11854,5309 11854,11872z"/>
   <path class="fil2 str10" d="M5722144 2200714c0,6572 -5316,11872 -11854,11872 -6543,0 -11854,-5300 -11854,-11872 0,-6562 5309,-11872 11854,-11872 6541,0 11854,5309 11854,11872z"/>
   <path class="fil2 str10" d="M5722144 2317692c0,6572 -5316,11872 -11854,11872 -6543,0 -11854,-5300 -11854,-11872 0,-6562 5309,-11872 11854,-11872 6541,0 11854,5309 11854,11872z"/>
   <path class="fil2 str10" d="M5722144 2434758c0,6572 -5316,11884 -11854,11884 -6543,0 -11854,-5309 -11854,-11884 0,-6562 5309,-11872 11854,-11872 6541,0 11854,5309 11854,11872z"/>
   <path class="fil2 str10" d="M5722144 2551733c0,6572 -5316,11872 -11854,11872 -6543,0 -11854,-5300 -11854,-11872 0,-6562 5309,-11872 11854,-11872 6541,0 11854,5309 11854,11872z"/>
   <path class="fil2 str10" d="M5605328 1849608c0,6562 -5309,11872 -11854,11872 -6541,0 -11854,-5309 -11854,-11872 0,-6562 5316,-11872 11854,-11872 6543,0 11854,5309 11854,11872z"/>
   <path class="fil2 str10" d="M5605328 1966674c0,6562 -5309,11872 -11854,11872 -6541,0 -11854,-5309 -11854,-11872 0,-6562 5316,-11872 11854,-11872 6543,0 11854,5309 11854,11872z"/>
   <path class="fil2 str10" d="M5605328 2083648c0,6562 -5309,11872 -11854,11872 -6541,0 -11854,-5309 -11854,-11872 0,-6562 5316,-11872 11854,-11872 6543,0 11854,5309 11854,11872z"/>
   <path class="fil2 str10" d="M5605328 2200714c0,6572 -5309,11872 -11854,11872 -6541,0 -11854,-5300 -11854,-11872 0,-6562 5316,-11872 11854,-11872 6543,0 11854,5309 11854,11872z"/>
   <path class="fil2 str10" d="M5605328 2317692c0,6572 -5309,11872 -11854,11872 -6541,0 -11854,-5300 -11854,-11872 0,-6562 5316,-11872 11854,-11872 6543,0 11854,5309 11854,11872z"/>
   <path class="fil2 str10" d="M5605328 2434758c0,6572 -5309,11884 -11854,11884 -6541,0 -11854,-5309 -11854,-11884 0,-6562 5316,-11872 11854,-11872 6543,0 11854,5309 11854,11872z"/>
   <path class="fil2 str10" d="M5605328 2551733c0,6572 -5309,11872 -11854,11872 -6541,0 -11854,-5300 -11854,-11872 0,-6562 5316,-11872 11854,-11872 6543,0 11854,5309 11854,11872z"/>
   <path class="fil2 str10" d="M5488423 1849608c0,6562 -5309,11872 -11854,11872 -6543,0 -11854,-5309 -11854,-11872 0,-6562 5309,-11872 11854,-11872 6543,0 11854,5309 11854,11872z"/>
   <path class="fil2 str10" d="M5488423 1966674c0,6562 -5309,11872 -11854,11872 -6543,0 -11854,-5309 -11854,-11872 0,-6562 5309,-11872 11854,-11872 6543,0 11854,5309 11854,11872z"/>
   <path class="fil2 str10" d="M5488423 2083648c0,6562 -5309,11872 -11854,11872 -6543,0 -11854,-5309 -11854,-11872 0,-6562 5309,-11872 11854,-11872 6543,0 11854,5309 11854,11872z"/>
   <path class="fil2 str10" d="M5488423 2200714c0,6572 -5309,11872 -11854,11872 -6543,0 -11854,-5300 -11854,-11872 0,-6562 5309,-11872 11854,-11872 6543,0 11854,5309 11854,11872z"/>
   <path class="fil2 str10" d="M5488423 2317692c0,6572 -5309,11872 -11854,11872 -6543,0 -11854,-5300 -11854,-11872 0,-6562 5309,-11872 11854,-11872 6543,0 11854,5309 11854,11872z"/>
   <path class="fil2 str10" d="M5488423 2434758c0,6572 -5309,11884 -11854,11884 -6543,0 -11854,-5309 -11854,-11884 0,-6562 5309,-11872 11854,-11872 6543,0 11854,5309 11854,11872z"/>
   <path class="fil2 str10" d="M5488423 2551733c0,6572 -5309,11872 -11854,11872 -6543,0 -11854,-5300 -11854,-11872 0,-6562 5309,-11872 11854,-11872 6543,0 11854,5309 11854,11872z"/>
   <path class="fil1 str1" d="M4477410 2547195l-3034409 0c-54788,0 -99296,-44856 -99296,-100263l0 -1870301c0,-55407 44506,-100266 99296,-100266l3034497 0c54778,0 99294,44863 99294,100266l0 1870294c-87,55413 -44603,100269 -99382,100269l0 1z"/>
   <path class="fil3" d="M4473012 2463474l-3025660 0c-46928,0 -85028,-38159 -85028,-85143l0 -1801288c0,-46988 38100,-85147 85028,-85147l3025660 0c46928,0 85041,38159 85041,85147l0 1801288c0,47072 -38113,85143 -85041,85143z"/>
   <path class="fil4" d="M3477947 660411l0 1270876c0,38337 -30993,69366 -69281,69366l-1910919 0c-17176,0 -32937,-6237 -45053,-16665 -14772,-12754 -24216,-31569 -24216,-52700l0 -1270876c0,-38337 31081,-69366 69269,-69366l1910919 0c17187,0 33034,6241 45053,16675 14872,12750 24228,31563 24228,52694l0 -4z"/>
   <path class="fil5" d="M4423212 1134288l-791003 0c-38284,0 -69278,-31022 -69278,-69366l0 -404512c0,-38337 30993,-69366 69278,-69366l791003 0c38288,0 69269,31028 69269,69366l0 404512c0,38343 -31069,69366 -69269,69366z"/>
   <path class="fil5" d="M4423212 1773795l-791003 0c-38284,0 -69278,-31035 -69278,-69366l0 -404522c0,-38334 30993,-69366 69278,-69366l791003 0c38288,0 69269,31035 69269,69366l0 404522c0,38334 -31069,69366 -69269,69366z"/>
   <path class="fil5" d="M4423212 2379723l-791003 0c-38284,0 -69278,-31035 -69278,-69366l0 -366000c0,-38334 30993,-69366 69278,-69366l791003 0c38288,0 69269,31035 69269,69366l0 366000c0,38334 -31069,69366 -69269,69366z"/>
   <path class="fil5" d="M2473512 2137067l-1019835 0c-13893,0 -25113,-11237 -25113,-25143 0,-13912 11219,-25143 25113,-25143l1019835 0c13884,0 25103,11231 25103,25143 0,13815 -11219,25143 -25103,25143z"/>
   <path class="fil5" d="M2532372 2372979l-1077678 0c-14685,0 -26537,-10897 -26537,-24393l0 -97672c0,-13504 11854,-24400 26537,-24400l1077678 0c14685,0 26537,10897 26537,24400l0 97672c0,13496 -11854,24393 -26537,24393z"/>
   <path class="fil5" d="M3228544 2137067l224284 0c13893,0 25119,-11237 25119,-25143 0,-13912 -11222,-25143 -25119,-25143l-224284 0c-13887,0 -25107,11231 -25107,25143 0,13815 11219,25143 25107,25143z"/>
   <path class="fil5" d="M2848094 2137067l224278 0c13893,0 25113,-11237 25113,-25143 0,-13912 -11219,-25143 -25113,-25143l-224278 0c-13893,0 -25113,11231 -25113,25143 -87,13815 11219,25143 25113,25143z"/>
   <path class="fil5" d="M3008006 2374052l444826 0c13893,0 25119,-11241 25119,-25143l0 -100663c0,-13916 -11222,-25143 -25119,-25143l-444826 0c-13893,0 -25113,11225 -25113,25143l0 100663c0,13903 11219,25143 25113,25143z"/>
   <g id="_529917544">
    <path class="fil6 str11" d="M4024855 1007335c77438,0 140229,-62874 140229,-140431 0,-77549 -62791,-140425 -140229,-140425 -77451,0 -140248,62876 -140248,140425 0,77557 62797,140431 140248,140431z"/>
    <path class="fil6 str11" d="M4082303 853056l-80042 -46269c-8804,-5080 -19752,1248 -19752,11408l0 92550c0,10148 10948,16488 19752,11408l80042 -46269c8836,-5092 8836,-17750 0,-22830l0 0z"/>
   </g>
   <g id="_529916872">
    <path class="fil6 str11" d="M4024855 1638330c77438,0 140229,-62861 140229,-140431 0,-77536 -62791,-140413 -140229,-140413 -77451,0 -140248,62877 -140248,140413 0,77570 62797,140431 140248,140431z"/>
    <path class="fil6 str11" d="M4082303 1484058l-80042 -46282c-8804,-5068 -19752,1248 -19752,11424l0 92554c0,10160 10948,16488 19752,11408l80042 -46269c8836,-5093 8836,-17756 0,-22835l0 0z"/>
   </g>
   <g id="_529915792">
    <path class="fil6 str11" d="M4024855 2263256c77438,0 140229,-62877 140229,-140425 0,-77557 -62791,-140431 -140229,-140431 -77451,0 -140248,62874 -140248,140431 0,77548 62797,140425 140248,140425z"/>
    <path class="fil6 str11" d="M4082303 2108977l-80042 -46272c-8804,-5076 -19752,1252 -19752,11409l0 92552c0,10160 10948,16488 19752,11408l80042 -46272c8836,-5088 8836,-17737 0,-22826l0 0z"/>
   </g>
   <path class="fil7" d="M3453719 607717l-2001025 1376256c-14772,-12744 -24216,-31557 -24216,-52688l0 -1270876c0,-38337 31081,-69366 69269,-69366l1910919 0c17187,0 33034,6241 45053,16675l0 -1z"/>
   <g style="clip-path:url(#id0)">
    <polygon class="fil8" points="1431841,305484 3477648,305484 3477648,2003340 1431841,2003340 "/>
   </g>
   <g style="clip-path:url(#id1)">
    <g>
     <polygon id="1" class="fil9" points="1431841,305484 3477648,305484 3477648,2003340 1431841,2003340 "/>
    </g>
   </g>
   <path class="fil0" d="M3477648 389034l0 1530755c0,46166 -30919,83551 -69137,83551l-1907508 0c-17166,0 -32891,-7520 -44987,-20079 -14745,-15365 -24175,-38023 -24175,-63472l0 -1530755c0,-46178 31026,-83550 69162,-83550l1907508 0c17157,0 32973,7525 44986,20093 14828,15357 24151,38011 24151,63457l0 0z"/>
   <g style="clip-path:url(#id2)">
    <polygon class="fil8" points="1431841,305484 3477648,305484 3477648,2003340 1431841,2003340 "/>
   </g>
   <g style="clip-path:url(#id3)">
    <g>
     <path id="1" class="fil10" d="M3316491 1386451c0,0 114232,-90309 117262,-116166 5704,-48684 23150,-86844 127675,-119119 0,0 8104,15507 -6403,32360 -15847,18278 -28407,24697 -28407,24697 0,0 27693,10612 68916,-21659 41225,-32191 58587,-60188 75950,-53326 0,0 20476,-18541 30181,-15604 0,0 7126,2140 5791,9813 16113,-2500 12822,44037 -15847,81847 -41225,54387 -92694,101197 -134810,116616 -31606,11600 -162226,144706 -162226,144706l-78084 -84169 1 4z"/>
     <path class="fil1" d="M2963722 1847233c-49859,16853 -326493,-409156 -326493,-409156 -106937,-123219 -10954,-529073 85828,-386769 0,0 251706,455960 278863,492693 33746,45647 146026,240906 -38200,303232l2 0z"/>
     <path class="fil1" d="M2652003 2270111l-729391 0c0,0 -56007,-24693 -7303,-132397 18250,-40213 10335,-143822 7303,-286028 -6141,-281206 -89478,-747953 13359,-801454 61612,-32182 192494,-74528 287491,-103509 5704,-1606 11219,-3300 16659,-4903 55460,-16584 95085,-27550 95085,-27550 0,0 45944,6687 139259,34325 5066,1515 10322,3122 15759,4728 24306,7400 51372,16044 81463,26297 163116,55550 144778,35757 166416,239753 17275,162891 -86104,1050737 -86104,1050737l2 0z"/>
     <path class="fil11" d="M2490228 953229c-2138,34591 -17634,65176 -41222,87553 -23956,22919 -56450,36819 -91893,36819 -73097,0 -132222,-58576 -133734,-130878 5704,-1606 11219,-3300 16659,-4903 55460,-16584 95085,-27550 95085,-27550 0,0 45944,6687 139259,34325 5066,1428 10409,3031 15847,4635l-1 0z"/>
     <path class="fil12" d="M2474197 661236l-11484 222184 -3287 63391c-1341,26928 -13181,50909 -31522,68203 -18159,17300 -42741,27819 -69631,27819 -56897,0 -102750,-46988 -101237,-103869l2854 -113144 4806 -187950 209503 23360 -1 6z"/>
     <path class="fil13" d="M2474197 705636l-11484 209256c-98297,3922 -169969,-36019 -202825,-89337l4806 -143096 209503 23181 0 -4z"/>
     <path class="fil14" d="M2199424 443686c0,0 -94196,-11769 -83428,106456 8378,91656 132756,213984 132756,213984 0,0 78534,-276219 -49331,-320440l4 0z"/>
     <path class="fil15" d="M2584163 528833c-6412,14622 -16297,27372 -24400,41104 -8003,13728 -14422,29422 -12631,45294 -1612,-25766 -18613,-47434 -33306,-68565 -14687,-21219 -28044,-46900 -21013,-71685 6681,-23803 49681,-61341 75856,-45915 29119,17119 26894,73825 15497,99769l-4 -1z"/>
     <path class="fil12" d="M2552194 533561c0,0 7303,72397 -2841,152550 -11759,92637 -7576,201412 -143888,208722 -145491,7756 -193656,-155313 -193656,-155313 0,0 -77288,-14444 -82538,-66691 -5256,-52337 48703,-55278 66328,-40569 0,0 19946,-194991 199893,-194991 158750,-181 156700,96291 156700,96291z"/>
     <path class="fil16" d="M2381237 682364c0,7935 -6403,14440 -14419,14440 -8009,0 -14422,-6419 -14422,-14440 0,-7935 6412,-14440 14422,-14440 8016,0 14419,6507 14419,14440z"/>
     <path class="fil16" d="M2511591 682364c0,7935 -6412,14440 -14422,14440 -8016,0 -14419,-6419 -14419,-14440 0,-7935 6403,-14440 14419,-14440 8009,0 14422,6507 14422,14440z"/>
     <path class="fil0 str12" d="M2314381 632170c0,0 21369,-35219 66869,-22557"/>
     <path class="fil0 str12" d="M2459684 609079c0,0 32856,-30047 65178,2854"/>
     <path class="fil0 str13" d="M2430840 644832c0,0 15575,39853 28844,64637 13272,24784 -25903,35841 -25903,35841"/>
     <path class="fil0 str13" d="M2378659 789892c0,0 32144,31204 73460,12122"/>
     <path class="fil0 str13" d="M2193012 689582c0,0 -441,-44841 -33913,-32628"/>
     <path class="fil14" d="M2237188 481133c0,0 81826,83453 37035,115372 -49853,35575 -57609,85859 -57609,85859 0,0 1075,-17740 -21103,-50193 -22166,-32544 -70519,-147915 41675,-151037l2 -1z"/>
     <path class="fil1" d="M2963722 1847233c59484,38784 511525,-444728 511525,-444728l-80225 -105112c0,0 -343688,215937 -393103,246609 -71235,44134 -238259,172878 -38200,303232l4 -1z"/>
     <path class="fil17" d="M2723325 1566121c0,0 20210,-221032 16743,-291203 0,0 28756,185544 29469,356994l-46213 -65791 1 0z"/>
     <path class="fil1" d="M1959475 1490773c0,0 105866,-453906 -7390,-448566 0,0 -36947,4462 -109240,116803 -50581,78556 -105953,214697 -206928,436166 -47719,104672 -107378,246344 3387,253931 59916,4100 122778,-28716 159816,-97635 67853,-126250 160359,-260700 160359,-260700l-5 1z"/>
     <path class="fil17" d="M2054209 2055770l576156 -135969c-87,0 -181276,135969 -576156,135969z"/>
     <path class="fil17" d="M1899462 1581983c0,0 92956,-164854 142375,-245281l-116022 630623c0,0 -11307,-257572 -26353,-385341l0 -1z"/>
     <polygon class="fil17" points="2269943,1796770 1925378,1957873 1943093,1792220 "/>
     <path class="fil17 str14" d="M2326394 1769204l0 0 56897 -311075 0 -19c2960,-16384 17225,-28259 33931,-28259l120915 0c21519,0 37828,19531 33919,40775l0 13 -56884 311062c-3047,16416 -17334,28276 -33934,28276l-120913 0c-21531,0 -37834,-19519 -33931,-40775l0 2z"/>
     <path class="fil3" d="M2496194 1828057l-120922 0c-24569,0 -43178,-22284 -38725,-46538l56897 -311075c3378,-18728 19675,-32281 38725,-32281l120915 0c24575,0 43187,22291 38734,46544l-56900 311075c-3378,18719 -19675,32272 -38725,32272l0 2z"/>
     <path class="fil17 str14" d="M2406344 1548404l13 -47 13884 -75969 0 0 13 -28c203,-1191 1259,-2119 2575,-2119l21638 0c1678,0 2900,1513 2597,3116l-13 47 -13893 75957 0 0 0 40c-203,1191 -1259,2106 -2588,2106l-21625 0c-1678,0 -2913,-1504 -2597,-3103l-4 0z"/>
     <path class="fil10" d="M2156334 1659818c0,0 58946,-1963 104091,-15781 19413,-5975 57872,-12928 70606,-31381 12822,-18634 11660,-58853 24478,-60543 9891,-1337 29653,30131 24575,51353 -4990,20778 -7390,32281 -14956,41556 -2491,3119 80584,9006 133204,-2588 36059,-7937 25369,27819 891,39050 0,0 8722,21843 -16831,29244 0,0 272,29159 -24128,30494 -2753,6775 -7481,21219 -28581,26394 -30716,7576 -77109,10428 -123850,6241 -23766,-2140 -133469,17115 -133469,17115l-16025 -131157 -4 2z"/>
     <path class="fil1" d="M1635737 1850798c84141,14713 585687,-41996 585687,-41996l-12469 -175728c0,0 -408676,19081 -463172,14178 -180209,-15966 -214756,185269 -110043,203546l-4 0z"/>
     <path class="fil14" d="M2257034 348639c8643,-8650 18260,-17831 30369,-19169 12110,-1341 25903,9981 21904,21575 41222,-17922 84313,-31293 128391,-39853 11041,-2140 22965,-3922 33207,981 10156,4900 16475,19081 9531,27906 21366,8022 45050,2759 67753,87 22703,-2675 48619,-1515 64016,15334 14334,15604 14607,39141 14157,60363 -712,29066 -1426,58310 -8016,86662 -9794,41907 -32584,80600 -64550,109397 9528,-32632 -7481,-68831 -34276,-89782 -26715,-21044 -61172,-29334 -94919,-33169 -40416,-4635 -81553,-3566 -121800,3034 -30359,4994 -73726,26660 -103906,12928 -66862,-30313 32322,-130441 58137,-156296l4 0z"/>
    </g>
   </g>
   <path class="fil0" d="M3477648 389034l0 1530755c0,46166 -30919,83551 -69137,83551l-1907508 0c-17166,0 -32891,-7520 -44987,-20079 -14745,-15365 -24175,-38023 -24175,-63472l0 -1530755c0,-46178 31026,-83550 69162,-83550l1907508 0c17157,0 32973,7525 44986,20093 14828,15357 24151,38011 24151,63457l0 0z"/>
   <path class="fil0" d="M3477650 389039l0 1530747c0,46175 -30922,83554 -69141,83554l-1907512 0c-17157,0 -32884,-7519 -44975,-20085 -14753,-15359 -24175,-38016 -24175,-63469l0 -1530747c0,-46178 31022,-83550 69154,-83550l1907512 0c17157,0 32975,7519 44975,20081 14841,15359 24165,38019 24165,63469l-4 0z"/>
   <path class="fil1 str3" d="M3293456 724336l-418660 0c-32043,0 -58046,-26031 -58046,-58128l0 -175825c0,-32096 26003,-58132 58046,-58132l418660 0c32056,0 58050,26037 58050,58132l0 175825c0,32096 -25997,58128 -58050,58128z"/>
   <polygon class="fil1 str3" points="2906319,705436 2906319,785502 2991969,699726 "/>
   <path class="fil18" d="M2939712 611730c18435,0 33384,-14969 33384,-33435 0,-18463 -14950,-33431 -33384,-33431 -18444,0 -33393,14969 -33393,33431 0,18465 14950,33435 33393,33435z"/>
   <path class="fil18" d="M3084128 611730c18435,0 33384,-14969 33384,-33435 0,-18463 -14950,-33431 -33384,-33431 -18444,0 -33393,14969 -33393,33431 0,18465 14950,33435 33393,33435z"/>
   <path class="fil18" d="M3228544 611730c18444,0 33391,-14969 33391,-33435 0,-18463 -14947,-33431 -33391,-33431 -18437,0 -33384,14969 -33384,33431 0,18465 14947,33435 33384,33435z"/>
   <polygon class="fil19" points="4445059,3104155 4426097,3335161 4524481,3335161 4575591,3104155 "/>
   <path class="fil20" d="M4535166 3286836c0,0 42741,69100 10690,81403 -32056,12304 -243072,13378 -295156,5616 -52094,-7844 116187,-79259 154656,-90497 38550,-11231 50922,47350 129809,3475l1 4z"/>
   <polygon class="fil19" points="4962366,3104155 4981241,3335161 4882856,3335161 4831835,3104155 "/>
   <path class="fil20" d="M4872172 3286836c0,0 -42741,69100 -10681,81403 32056,12304 243072,13378 295156,5616 52084,-7844 -116197,-79259 -154659,-90497 -38459,-11231 -50928,47350 -129816,3475l0 4z"/>
   <path class="fil4" d="M4425297 1841033l-44603 1385087 207719 0 44787 -922531 177984 949012 226240 -37713c0,0 -204250,-1035232 -238972,-1373769l-373156 0 0 -87 1 0z"/>
   <polygon class="fil5 str15" points="4623647,2367129 4616587,2217736 4628287,2303661 "/>
   <line class="fil0 str16" x1="4731673" y1="1841033" x2="4972072" y2= "3222645" />
   <path class="fil21" d="M4681641 820070c44341,87 91434,23360 106394,65178 11581,32184 2854,70166 19063,100306 11919,22284 35787,36634 46566,59466 22250,47438 -21112,103775 -7303,154250 12731,46709 70519,73466 75319,121700 3119,30759 -18513,60266 -46390,73644 -27778,13466 -60363,13365 -90819,8288 -74694,-12566 -145041,-53584 -220713,-49659 -31169,1603 -63754,10703 -92607,-1341 -20563,-8563 -35438,-26656 -48519,-44669 -15050,-20681 -29478,-44222 -28056,-69722 2053,-37443 35972,-63666 56272,-95134 20747,-32184 29469,-72393 23691,-110290 -27516,-180103 73631,-174575 86541,-174841 11844,-269 51194,-24431 66778,-28978 17622,-5081 35609,-8203 53782,-8203l0 6z"/>
   <path class="fil22" d="M4206447 1575695c-42828,-34156 -216984,-149522 -218685,-165663 -3203,-30309 -13800,-54304 -78703,-74978 0,0 -5163,9625 3828,20237 9706,11503 17537,15507 17537,15507 0,0 -17272,6425 -42735,-13906 -25469,-20328 -36059,-37893 -46922,-33706 0,0 -12644,-11681 -18697,-9891 0,0 -4453,1247 -3653,6063 -10069,-1700 -8281,27281 9256,51087 25291,34143 69894,60178 96076,70078 19584,7400 148065,197660 234169,218263 24754,5704 68469,-67225 48532,-83094l-4 2z"/>
   <path class="fil22" d="M4341156 1406920c0,0 -192494,134457 -211107,167888 -18613,33435 -4716,122681 81025,65353 85741,-57334 221075,-161378 221075,-161378l-90993 -71865 0 2z"/>
   <path class="fil23" d="M4440079 1284501c0,0 -52897,13378 -88153,55365 -29556,35219 -77187,91922 -77187,91922l146019 113590c84,-87 35706,-206575 19322,-260875l0 -2z"/>
   <path class="fil20 str17" d="M4798450 1841033l-373244 0c0,0 1513,-64103 -19234,-163700 -20828,-99500 -10419,-151566 10328,-203546 20837,-51978 -16297,-172169 23778,-189285 16287,-6953 44603,-18190 72382,-28981 7031,-2675 13984,-5440 20662,-8016 32231,-12488 59387,-22828 59387,-22828l67219 0c0,0 46300,15340 93843,34322 6237,2500 12556,5091 18784,7675 0,87 0,87 0,87 23956,10075 46840,20678 62415,30406 50491,31196 -36325,543866 -36325,543866l5 0z"/>
   <path class="fil24" d="M4569884 1059286l7131 138372 2047 39497c891,16766 8193,31747 19587,42537 11307,10787 26619,17290 43363,17290 35438,0 63925,-29244 63040,-64637l-1791 -70428 -3025 -117066 -130356 14440 2 -6z"/>
   <path class="fil25" d="M4569884 1059286l7131 130356c61162,2487 105866,-22478 126340,-55637l-3025 -89159 -130443 14440 -4 0z"/>
   <path class="fil24" d="M4521278 952117c0,0 -4540,45119 1778,94956 7303,57691 13709,123754 89669,129993 90456,7400 120638,-96735 120638,-96735 0,0 42028,-9813 47191,-38522 5166,-28796 -26176,-37447 -37122,-28346 0,0 -12469,-121437 -124475,-121437 -99013,0 -97675,60091 -97675,60091l-4 0z"/>
   <path class="fil17" d="M4772359 1266673c0,87 0,87 0,0 -76569,93435 -166853,89069 -166853,89069 -71231,-15604 -93044,-100222 -93044,-100222 7041,-2675 13984,-5440 20662,-8016 32231,-12488 59387,-22828 59387,-22828l67219 0c0,0 46300,15340 93843,34322 6237,2500 12556,5091 18784,7675l1 1z"/>
   <path class="fil22" d="M4753575 1258999c-78087,84969 -145756,76056 -145756,76056 -72744,-27906 -74706,-87550 -74706,-87550 32231,-12488 59396,-22828 59396,-22828l67219 0c0,0 46300,15340 93843,34322l4 1z"/>
   <path class="fil21" d="M4560278 865811c0,0 10419,87822 -45944,116797 0,0 -28228,-106363 45944,-116797z"/>
   <path class="fil21" d="M4543182 874192c0,0 20034,76496 69716,80960 49681,4453 40866,44763 84856,49390 26176,2759 37834,30057 37834,30057 0,0 3828,-27106 27516,-36735 23865,-9634 -56007,-212113 -219922,-123669l0 -4z"/>
   <path class="fil26" d="M4627497 1058301c0,4813 3828,8650 8641,8650 4806,0 8631,-3837 8631,-8650 0,-4815 -3828,-8643 -8631,-8643 -4726,0 -8641,3915 -8641,8643z"/>
   <path class="fil26" d="M4549332 1058301c0,4813 3828,8641 8631,8641 4813,0 8641,-3828 8641,-8641 0,-4815 -3915,-8653 -8641,-8653 -4806,0 -8631,3928 -8631,8653z"/>
   <path class="fil0 str18" d="M4667647 1028170c0,0 -12816,-21131 -40150,-13557"/>
   <path class="fil0 str18" d="M4580481 1014351c0,0 -19762,-18006 -39078,1688"/>
   <path class="fil0 str19" d="M4597757 1035833c0,0 -9344,23890 -17275,38784 -7919,14890 15585,21490 15585,21490"/>
   <path class="fil0 str19" d="M4649572 1113051c0,0 -15222,22194 -41753,15866"/>
   <path class="fil0 str19" d="M4743157 1052238c0,0 272,-26922 20297,-19519"/>
   <path class="fil17" d="M4432863 1752049l-341897 0c-6769,0 -12285,-5525 -12285,-12300 0,-6775 5519,-12304 12285,-12304l341897 0c6769,0 12296,5528 12296,12304 -87,6866 -5528,12300 -12296,12300z"/>
   <path class="fil17 str14" d="M4052509 1461199l0 0 0 -19c-2072,-8235 4228,-16297 12712,-16297l307978 0c6057,0 11290,4100 12712,9909l0 22 66350 267837 -334959 0 -64796 -261454 4 0z"/>
   <path class="fil3" d="M4434825 1727533l-345022 0 -65706 -265160c-2854,-11319 5791,-22372 17450,-22372l307978 0c8281,0 15497,5613 17450,13641l67853 273894 -2 -2z"/>
   <path class="fil17" d="M4697479 1752049l-258741 0c-6325,0 -11481,-5163 -11481,-11500l0 -1513c0,-6328 5157,-11503 11481,-11503l258741 0c6325,0 11491,5176 11491,11503l0 1513c84,6425 -5078,11500 -11491,11500z"/>
   <path class="fil17 str14" d="M4237497 1568705l0 6c5778,14991 381,28750 -8875,32391 -9213,3531 -22431,-3038 -28222,-18066 -5791,-15028 -350,-28834 8865,-32387 9219,-3556 22450,2956 28231,18053l1 4z"/>
   <polygon class="fil23" points="4817325,1727533 4794884,1436339 4837987,1558929 "/>
   <path class="fil22" d="M4820266 1465945c0,0 53246,286553 66419,333454 8554,30309 70703,51000 90203,10878 4266,-8828 3291,-23544 2841,-38522 -3025,-92634 -67753,-328378 -67753,-328378l-91709 22569 -1 0z"/>
   <path class="fil20 str17" d="M4834860 1297167c0,0 31794,16316 58500,62404 26715,46097 63575,127419 61263,147122 -13893,37887 -123591,77119 -123591,77119 0,0 -73272,-241181 3828,-286644z"/>
   <path class="fil22" d="M4896388 1744027c0,0 -169078,-3741 -201137,-22822 -43441,-25944 -53510,-14713 -78700,-20953 -40426,-10075 -35972,-1876 -35972,-1876 0,0 1863,23457 33119,26394 15763,1513 39350,8203 34372,12038 0,0 -125366,13107 -150569,15331 -25191,2237 -12909,21666 6325,26131 0,0 11484,14528 30097,10075 0,0 -4100,8203 44153,8203 48269,0 96697,-25681 121187,-14541 24478,11150 156710,62413 240575,50559 40072,-5713 40337,-24966 40337,-45296 0,-35222 -26003,-39672 -83787,-43244l0 1z"/>
   <polygon class="fil27" points="1388493,3104155 1332669,3335161 1234284,3335161 1257975,3104155 "/>
   <path class="fil20" d="M1223600 3286836c0,0 -42735,69100 -10681,81403 32056,12304 243072,13378 295156,5616 52084,-7844 -116193,-79259 -154656,-90497 -38463,-11231 -50932,47350 -129819,3475l-1 4z"/>
   <polygon class="fil27" points="1078650,3104155 1044903,3335161 946515,3335161 948118,3104155 "/>
   <path class="fil20" d="M935834 3286836c0,0 -42741,69100 -10684,81403 32053,12304 243066,13378 295160,5616 52084,-7844 -116197,-79259 -154659,-90497 -38463,-11231 -50928,47350 -129816,3475l0 4z"/>
   <path class="fil4" d="M913309 1986905l7300 1232716 156178 0 110316 -905687 125715 367513 -94107 538263 169882 0c0,0 149316,-465147 143265,-556443 -6057,-91394 -178434,-713903 -178434,-713903l-440113 37544 -4 -1z"/>
   <polygon class="fil5 str15" points="1215069,2380946 1191978,2313355 1202734,2203986 "/>
   <line class="fil0 str15" x1="1001463" y1="1972011" x2="992459" y2= "3219708" />
   <path class="fil27" d="M1479672 1422345c0,0 100876,191060 103103,249735 2225,58663 -62328,45562 -95713,-7316 -33384,-52963 -86816,-203109 -86816,-203109l79422 -39313 4 4z"/>
   <path class="fil23" d="M1498550 1438302c0,0 -28935,51534 -98300,83007 -14334,6513 -26444,-10703 -35438,-31119 -10419,-23806 -16472,-51887 -16472,-51887 0,0 -79513,-246347 -9435,-237519 0,0 59650,4187 103456,90672 11491,22557 29391,68026 44350,111188 4266,12304 8281,24331 11835,35662l2 -5z"/>
   <path class="fil17" d="M1498550 1438302c0,0 -28935,51534 -98300,83007 -14334,6513 -26444,-10703 -35438,-31119 27154,-12216 78537,-39676 121900,-87550 4266,12304 8281,24331 11835,35662l2 0z"/>
   <path class="fil20" d="M1356980 1962823c-44075,50113 -334244,42710 -443763,24069 -19231,-3287 -38197,-10690 -7838,-77744 11400,-25054 6503,-89510 4544,-178141 -3828,-175194 -55737,-465850 8281,-499206 38375,-20053 119844,-46447 179053,-64453 3566,-984 7031,-2047 10419,-3122 34547,-10341 59210,-17206 59210,-17206 0,0 28581,4187 86719,21393 3116,896 6503,1963 9885,2950 15135,4628 31965,9978 50757,16403 36410,12387 63125,19965 69628,32096 17360,31831 10684,88269 11747,169578 1426,102087 363,529160 -38641,573382z"/>
   <polygon class="fil23" points="896303,1532635 958893,1379814 913309,1772918 "/>
   <path class="fil17" d="M1263490 1171452c-1341,21578 -11034,40559 -25641,54475 -14962,14263 -35176,22916 -57163,22916 -45503,0 -82363,-36469 -83250,-81578 3562,-987 7031,-2053 10419,-3125 34547,-10341 59210,-17206 59210,-17206 0,0 28578,4187 86719,21393 3025,1162 6325,2138 9706,3125z"/>
   <path class="fil28" d="M1301434 835086c0,0 -32962,-31553 -82850,-39057 -72978,-10984 -169050,12790 -188187,124344 -15135,64284 63128,169935 92687,163785 0,0 266087,-168663 178354,-249069l-4 -4z"/>
   <path class="fil27" d="M1253518 989654l-7119 138376 -2047 39497c-800,16766 -8193,31747 -19587,42532 -11307,10781 -26628,17294 -43363,17294 -35438,0 -63925,-29244 -63038,-64637l1775 -70441 3025 -117066 130356 14447 -2 -1z"/>
   <path class="fil29" d="M1253518 1017201l-7119 130356c-61172,2491 -105866,-22469 -126350,-55637l3031 -89159 130441 14440 -4 0z"/>
   <path class="fil27" d="M1302050 910032c0,0 4540,45116 -1787,94954 -7297,57691 -4716,125444 -89656,129993 -90647,4815 -120650,-96735 -120650,-96735 0,0 -48169,-9000 -51459,-41546 -3300,-32544 30359,-34419 41316,-25322 0,0 12459,-121434 124466,-121434 99100,87 97772,60091 97772,60091l-1 -1z"/>
   <path class="fil26" d="M1198400 997236c0,4990 -4000,9000 -8981,9000 -4990,0 -8994,-4012 -8994,-9000 0,-5000 4003,-9013 8994,-9013 4893,0 8981,4012 8981,9013z"/>
   <path class="fil26" d="M1285041 992595c0,4990 -4012,9000 -8994,9000 -4990,0 -8994,-4012 -8994,-9000 0,-5000 4003,-9006 8994,-9006 4981,0 8994,4003 8994,9006z"/>
   <path class="fil0 str20" d="M1153971 971464c0,0 13272,-21931 41666,-13997"/>
   <path class="fil0 str20" d="M1244440 957108c0,0 20476,-18722 40587,1781"/>
   <path class="fil0 str21" d="M1226541 979395c0,0 9706,24788 17985,40306 8281,15416 -16209,22278 -16209,22278"/>
   <path class="fil0 str21" d="M1193959 1069717c0,0 20026,19431 45754,7576"/>
   <path class="fil0 str21" d="M1078377 1007204c0,0 -266,-27896 -21091,-20319"/>
   <path class="fil28" d="M1105893 877401c0,0 50932,51978 23062,71863 -30982,22113 -35881,53497 -35881,53497 0,0 625,-11053 -13172,-31293 -13809,-20244 -43903,-92104 25990,-94063l0 -4z"/>
   <path class="fil27" d="M827034 1432598c0,0 -100878,191072 -103103,249735 -2228,58663 62326,45562 95713,-7310 33391,-52965 86812,-203109 86812,-203109l-79419 -39315 -4 0z"/>
   <path class="fil27" d="M1546362 1607430c0,0 -150378,-111441 -158934,-117778 -14512,-10876 -35696,-26656 -43354,-32007 -12119,-8466 -82900,-20769 -92782,-19169 -9794,1603 -36950,6241 -44875,9178 -7919,2950 2047,13116 9878,17928 7844,4813 42562,22819 72034,28259 16381,3038 30454,11326 41934,19619 9172,6600 167844,168600 173806,172525l42291 -78556 1 1z"/>
   <path class="fil27" d="M1360184 1470673c0,0 -56622,-53050 -65087,-52250 -8366,800 -2404,12750 19863,30843 7566,6154 15669,15866 22437,19081 13259,6237 22787,2326 22787,2326z"/>
   <path class="fil30 str14" d="M1314556 1661785l22 0c5009,-566 9150,-4187 10437,-9125l0 0 49319 -189909c2166,-8347 -4785,-16344 -13384,-15322 -13,0 -13,0 -13,0l-206469 24697 -28 0 0 0c-5000,575 -9150,4196 -10428,9131l0 0 -49331 189904c-2157,8360 4787,16350 13400,15331l206476 -24703 -1 -2zm0 0l-206476 24703 206476 -24703z"/>
   <path class="fil3 str22" d="M1324309 1672970l-206476 24693c-12019,1426 -21725,-9712 -18700,-21393l49331 -189909c1775,-6866 7566,-11950 14597,-12750l206478 -24693c12019,-1434 21725,9712 18700,21393l-49331 189904c-1778,6778 -7569,11865 -14600,12754l0 2z"/>
   <path class="fil17 str14" d="M1165453 1524529l0 0 -6 47c-13,40 -47,128 -165,237 -119,97 -266,175 -441,213l-9826 1141 0 0c-207,22 -391,-38 -534,-213 -159,-175 -197,-363 -146,-566l0 0 9706 -37269 0 0 28 -87c38,-184 203,-363 456,-391l9950 -1162 0 0c207,-19 391,47 537,226 156,178 197,363 144,556l0 6 -9706 37263 2 -1z"/>
   <path class="fil27" d="M762477 1625804c63038,2491 260075,-1610 286162,-10525 11219,-3828 38825,-9628 45853,-20594 7131,-11140 13181,-28081 20575,-29332 5691,-984 4356,17381 2666,24069 -3203,12038 -5341,18278 -9619,23806 -1426,1876 47106,8825 77559,1075 20913,-5350 16997,11415 2937,18454 0,0 5607,14619 -9178,19441 0,0 2588,16219 -11660,17472 -1513,4012 -5962,11237 -18260,14713 -17800,4990 -48691,4900 -72209,5878 -13884,534 -282331,42532 -329787,30578 -19766,-4990 -5522,-95835 14956,-95037l5 2z"/>
   <path class="fil20" d="M943406 1458267c0,0 -4631,17565 -11487,35672 -7656,19965 -18072,40469 -28312,38607 0,0 -139253,-44047 -134626,-58312 3472,-10612 9441,-24431 16828,-39769 23062,-47966 59656,-110554 74438,-134810 50394,-82828 71050,-72304 71050,-72304 70610,-3387 12112,230916 12112,230916l-4 0z"/>
   <path class="fil17" d="M931916 1493939c-7656,19965 -18072,40469 -28312,38607 0,0 -139253,-44047 -134626,-58312 3472,-10612 9441,-24431 16828,-39769 25644,12128 94828,43956 146109,59476l0 -1z"/>
   <path class="fil23" d="M976084 1884368c0,0 231497,-37181 356147,-111450 0,0 -139434,139707 -356147,111450z"/>
   <path class="fil20 str17" d="M3863209 2767842l-601988 0c-29653,0 -53597,-24069 -53597,-53666l0 -291291c0,-29687 24040,-53666 53597,-53666l601988 0c29641,0 53594,24069 53594,53666l0 291194c87,29694 -23950,53763 -53594,53763z"/>
   <path class="fil0 str23" d="M3271457 2664867c56094,0 56094,-66869 112194,-66869 56085,0 56085,-89159 112185,-89159 56094,0 56094,34143 112185,34143 56094,0 56094,-82469 112191,-82469 56087,0 56087,129366 112185,129366"/>
   <path class="fil3" d="M3287843 2664867c0,-9006 -7303,-16319 -16297,-16319 -8994,0 -16287,7316 -16287,16319 0,9000 7293,16303 16287,16303 8994,0 16297,-7303 16297,-16303z"/>
   <path class="fil3" d="M3848778 2589970c0,-9000 -7303,-16316 -16297,-16316 -8994,0 -16287,7316 -16287,16316 0,9000 7293,16310 16287,16310 8994,0 16297,-7306 16297,-16310z"/>
   <path class="fil20 str17" d="M381937 664667l601266 0c40247,0 72919,-32725 72919,-73025l0 -183756c0,-40300 -32672,-73019 -72919,-73019l-601266 0c-40244,0 -72925,32719 -72925,73019l0 183756c0,40388 32678,73025 72925,73025z"/>
   <polygon class="fil31" points="966553,645767 966553,725829 880810,640061 "/>
   <line class="fil0 str24" x1="378106" y1="415824" x2="544781" y2= "415824" />
   <line class="fil0 str24" x1="604172" y1="415824" x2="987031" y2= "415824" />
   <line class="fil0 str24" x1="378106" y1="499811" x2="688846" y2= "499811" />
   <line class="fil0 str24" x1="736390" y1="499811" x2="828369" y2= "499811" />
   <line class="fil0 str24" x1="877694" y1="499811" x2="987031" y2= "499811" />
   <line class="fil0 str24" x1="378106" y1="583710" x2="448447" y2= "583710" />
   <line class="fil0 str24" x1="491541" y1="583710" x2="745293" y2= "583710" />
   <path class="fil20 str17" d="M4124347 366898l-154300 0c-28678,0 -51919,-23272 -51919,-51982l0 -154513c0,-28709 23237,-51982 51919,-51982l154300 0c28669,0 51906,23272 51906,51982l0 154513c0,28709 -23237,51982 -51906,51982z"/>
   <path class="fil3" d="M4135028 224323l-3828 -16941c-712,-3300 -4100,-5350 -7390,-4635l-9978 2319c-2575,625 -5157,-625 -6581,-2854 -3928,-6154 -8731,-11681 -14244,-16316 -2228,-1876 -2941,-4903 -1700,-7491l4990 -10253c1513,-3034 178,-6775 -2850,-8203l-15676 -7576c-3025,-1515 -6769,-181 -8193,2854l-5341 11144c-1150,2493 -3915,3741 -6581,3387 -3304,-446 -6769,-716 -10156,-716 -3475,0 -6853,269 -10143,716 -2766,353 -5440,-894 -6591,-3387l-5341 -11144c-1513,-3034 -5166,-4369 -8193,-2854l-15676 7576c-3025,1515 -4363,5172 -2850,8203l4990 10253c1240,2588 441,5616 -1690,7491 -5528,4726 -10419,10162 -14244,16316 -1428,2228 -4016,3475 -6591,2854l-9978 -2319c-3291,-716 -6585,1337 -7381,4635l-3831 16941c-712,3300 1328,6600 4628,7400l12647 2854c-100,1787 -272,3481 -272,5263 0,8469 1513,16675 4278,24163 885,2493 262,5350 -1876,7044l-4893 3922c-2675,2138 -3116,5972 -978,8647l10322 13644c2140,2672 5969,3119 8643,978l3378 -2766c2313,-1781 5528,-1694 7753,93 7119,5525 15222,9807 24128,12393 2666,800 4628,3119 4628,5972l0 3569c0,3387 2766,6146 6141,6146l17360 0c3391,0 6144,-2759 6144,-6146l0 -3569c0,-2854 1959,-5172 4635,-5972 8897,-2588 17003,-6778 24128,-12393 2313,-1787 5519,-1963 7743,-93l3391 2766c2666,2140 6490,1694 8628,-978l10869 -13557c2128,-2675 1690,-6507 -984,-8647l-4893 -3922c-2138,-1694 -2759,-4547 -1876,-7044 2766,-7576 4278,-15691 4278,-24163 0,-1781 -175,-3475 -262,-5259l12638 -2854c3387,-894 5438,-4194 4726,-7491l-2 0zm-87788 59559c-24315,0 -43990,-19707 -43990,-44047 0,-24344 19675,-44047 43990,-44047 24304,0 43975,19703 43975,44047 0,24338 -19675,44047 -43975,44047z"/>
   <path class="fil20 str17" d="M5493804 1390195c15807,-97462 -50278,-189275 -147600,-205072 -97322,-15800 -189038,50394 -204847,147841 -15807,97450 50278,189266 147600,205072 97322,15800 189038,-50394 204847,-147841z"/>
   <path class="fil20 str23" d="M5415294 1385045c12744,-54006 -20653,-108110 -74588,-120853 -53928,-12744 -107985,20713 -120737,74706 -12744,54006 20641,108119 74581,120862 53941,12744 107994,-20713 120744,-74719l0 4z"/>
   <path class="fil20" d="M5317448 1295917l0 65706 -34631 34684m34631 -100388l0 0 0 0z"/>
   <polyline class="fil0 str23" points="5317632,1302254 5317632,1367958 5283001,1402642 "/>
   <line class="fil0 str23" x1="5317448" y1="1261145" x2="5317448" y2= "1270773" />
   <line class="fil0 str23" x1="5317448" y1="1452567" x2="5317448" y2= "1462108" />
   <line class="fil0 str23" x1="5417798" y1="1361623" x2="5408175" y2= "1361623" />
   <line class="fil0 str23" x1="5226728" y1="1361623" x2="5217098" y2= "1361623" />
  </g>
 </g>
</svg>
