<?xml version="1.0" encoding="UTF-8"?>
<!DOCTYPE svg PUBLIC "-//W3C//DTD SVG 1.1//EN" "http://www.w3.org/Graphics/SVG/1.1/DTD/svg11.dtd">
<!-- Creator: CorelDRAW X6 -->
<svg xmlns="http://www.w3.org/2000/svg" xml:space="preserve" width="432px" height="128px" version="1.1" style="shape-rendering:geometricPrecision; text-rendering:geometricPrecision; image-rendering:optimizeQuality; fill-rule:evenodd; clip-rule:evenodd"
viewBox="0 0 4320 1280"
 xmlns:xlink="http://www.w3.org/1999/xlink">
 <defs>
  <style type="text/css">
   <![CDATA[
    .fil0 {fill:#315472}
   ]]>
  </style>
 </defs>
 <g id="Layer_x0020_1">
  <metadata id="CorelCorpID_0Corel-Layer"/>
  <path class="fil0" d="M724 50l-517 0c-138,0 -207,68 -207,202l0 719c0,18 9,28 29,28l156 0c19,0 31,-11 31,-28l0 -27c0,-67 28,-103 96,-110l411 0c151,0 219,-66 219,-212l0 -361c0,-145 -68,-212 -219,-212zm3 511c0,79 -18,95 -110,95l-219 0c-92,0 -151,31 -182,92l0 -443c0,-61 15,-77 88,-77l313 0c92,0 110,16 110,95l0 239z"/>
  <path class="fil0" d="M1439 447c-119,0 -170,61 -170,164l0 362c0,16 -8,26 -27,26l-142 0c-19,0 -28,-9 -28,-26l0 -662c0,-16 9,-26 28,-26l119 0c17,0 27,10 27,26l3 109c23,-88 85,-135 201,-135l48 0c17,0 27,10 27,26l0 110c0,18 -9,26 -27,26l-60 0z"/>
  <path class="fil0" d="M2361 805c0,134 -59,194 -199,194l-347 0c-139,0 -199,-60 -199,-194l0 -325c0,-134 60,-194 199,-194l347 0c140,0 199,60 199,194l0 325zm-196 -274c0,-71 -13,-84 -96,-84l-159 0c-84,0 -98,14 -98,84l0 222c0,70 13,84 98,84l159 0c83,0 96,-14 96,-84l0 -222z"/>
  <path class="fil0" d="M2559 447l-67 0c-17,0 -27,-8 -27,-26l0 -110c0,-16 9,-26 27,-26l67 0 0 -88c0,-134 70,-202 207,-202l164 0c19,0 27,10 27,26l0 110c0,18 -8,26 -27,26l-87 0c-74,0 -88,16 -88,77l0 51 175 0c19,0 27,10 27,26l0 110c0,18 -8,26 -27,26l-175 0 0 526c0,16 -9,26 -28,26l-142 0c-19,0 -27,-9 -27,-26l0 -526z"/>
  <path class="fil0" d="M3104 447l-67 0c-17,0 -27,-8 -27,-26l0 -110c0,-16 9,-26 27,-26l67 0 0 -88c0,-134 69,-202 207,-202l164 0c19,0 27,10 27,26l0 110c0,18 -8,26 -27,26l-87 0c-73,0 -88,16 -88,77l0 51 175 0c19,0 27,10 27,26l0 110c0,18 -8,26 -27,26l-175 0 0 526c0,16 -9,26 -28,26l-142 0c-19,0 -27,-9 -27,-26l0 -526z"/>
  <path class="fil0" d="M4099 1276l-291 0c-131,0 -187,-51 -187,-179l0 -14c0,-4 0,-7 1,-11 1,-3 3,-7 6,-9 3,-3 6,-5 9,-6 3,-1 7,-2 11,-1l136 0c19,0 28,10 28,27l0 7c0,27 15,38 44,38l168 0c80,0 100,-20 100,-89l0 -214c-31,61 -90,92 -182,92l-136 0c-139,0 -200,-60 -200,-194l0 -411c0,-4 0,-7 2,-10 1,-3 3,-6 6,-9 3,-2 6,-4 9,-5 3,-1 7,-2 10,-1l143 0c17,0 27,10 27,26l0 360c0,70 15,84 98,84l102 0c88,0 123,-37 123,-111l0 -333c0,-16 9,-26 27,-26l143 0c3,0 7,0 10,1 3,1 6,3 9,6 2,2 4,5 5,9 1,3 2,7 1,10l0 748c0,142 -75,216 -221,216z"/>
 </g>
</svg>
