<?xml version="1.0" encoding="UTF-8"?>
<!DOCTYPE svg PUBLIC "-//W3C//DTD SVG 1.1//EN" "http://www.w3.org/Graphics/SVG/1.1/DTD/svg11.dtd">
<!-- Creator: CorelDRAW X6 -->
<svg xmlns="http://www.w3.org/2000/svg" xml:space="preserve" width="1119px" height="561px" version="1.1" style="shape-rendering:geometricPrecision; text-rendering:geometricPrecision; image-rendering:optimizeQuality; fill-rule:evenodd; clip-rule:evenodd"
viewBox="0 0 11190 5610"
 xmlns:xlink="http://www.w3.org/1999/xlink">
 <defs>
  <style type="text/css">
   <![CDATA[
    .str0 {stroke:#865190;stroke-width:35.4331;stroke-linecap:round;stroke-linejoin:round}
    .fil0 {fill:none}
    .fil1 {fill:#F4154D}
   ]]>
  </style>
 </defs>
 <g id="Layer_x0020_1">
  <metadata id="CorelCorpID_0Corel-Layer"/>
  <path class="fil0 str0" d="M10198 1814c0,56 -46,102 -102,102 -56,0 -102,-46 -102,-102 0,-56 46,-102 102,-102 56,0 102,46 102,102z"/>
  <line class="fil0 str0" x1="10170" y1="1885" x2="10242" y2= "1957" />
  <line class="fil0 str0" x1="2760" y1="1513" x2="2867" y2= "1621" />
  <line class="fil0 str0" x1="2867" y1="1513" x2="2760" y2= "1621" />
  <line class="fil0 str0" x1="8912" y1="4048" x2="9019" y2= "4156" />
  <line class="fil0 str0" x1="9019" y1="4048" x2="8912" y2= "4156" />
  <line class="fil0 str0" x1="3048" y1="4993" x2="3048" y2= "5145" />
  <line class="fil0 str0" x1="3124" y1="5069" x2="2972" y2= "5069" />
  <path class="fil0 str0" d="M999 2484c0,51 -41,92 -92,92 -51,0 -92,-41 -92,-92 0,-51 41,-92 92,-92 51,0 92,41 92,92z"/>
  <path class="fil0 str0" d="M6627 139c0,51 -41,92 -92,92 -51,0 -92,-41 -92,-92 0,-51 41,-92 92,-92 51,0 92,41 92,92z"/>
  <path class="fil0 str0" d="M7780 5486c0,51 -41,92 -92,92 -51,0 -92,-41 -92,-92 0,-51 41,-92 92,-92 51,0 92,41 92,92z"/>
  <path class="fil1" d="M33 3759c18,0 33,-15 33,-33 0,-18 -15,-33 -33,-33 -18,0 -33,15 -33,33 0,18 15,33 33,33z"/>
  <path class="fil1" d="M267 3759c18,0 33,-15 33,-33 0,-18 -15,-33 -33,-33 -18,0 -33,15 -33,33 0,18 15,33 33,33z"/>
  <path class="fil1" d="M500 3759c18,0 33,-15 33,-33 0,-18 -15,-33 -33,-33 -18,0 -33,15 -33,33 0,18 15,33 33,33z"/>
  <path class="fil1" d="M733 3759c18,0 33,-15 33,-33 0,-18 -15,-33 -33,-33 -18,0 -33,15 -33,33 0,18 15,33 33,33z"/>
  <path class="fil1" d="M966 3759c18,0 33,-15 33,-33 0,-18 -15,-33 -33,-33 -18,0 -33,15 -33,33 0,18 15,33 33,33z"/>
  <path class="fil1" d="M1200 3759c18,0 33,-15 33,-33 0,-18 -15,-33 -33,-33 -18,0 -33,15 -33,33 0,18 15,33 33,33z"/>
  <path class="fil1" d="M33 3992c18,0 33,-15 33,-33 0,-18 -15,-33 -33,-33 -18,0 -33,15 -33,33 0,18 15,33 33,33z"/>
  <path class="fil1" d="M267 3992c18,0 33,-15 33,-33 0,-18 -15,-33 -33,-33 -18,0 -33,15 -33,33 0,18 15,33 33,33z"/>
  <path class="fil1" d="M500 3992c18,0 33,-15 33,-33 0,-18 -15,-33 -33,-33 -18,0 -33,15 -33,33 0,18 15,33 33,33z"/>
  <path class="fil1" d="M733 3992c18,0 33,-15 33,-33 0,-18 -15,-33 -33,-33 -18,0 -33,15 -33,33 0,18 15,33 33,33z"/>
  <path class="fil1" d="M966 3992c18,0 33,-15 33,-33 0,-18 -15,-33 -33,-33 -18,0 -33,15 -33,33 0,18 15,33 33,33z"/>
  <path class="fil1" d="M1200 3992c18,0 33,-15 33,-33 0,-18 -15,-33 -33,-33 -18,0 -33,15 -33,33 0,18 15,33 33,33z"/>
  <path class="fil1" d="M33 4226c18,0 33,-15 33,-33 0,-18 -15,-33 -33,-33 -18,0 -33,15 -33,33 0,18 15,33 33,33z"/>
  <path class="fil1" d="M267 4226c18,0 33,-15 33,-33 0,-18 -15,-33 -33,-33 -18,0 -33,15 -33,33 0,18 15,33 33,33z"/>
  <path class="fil1" d="M500 4226c18,0 33,-15 33,-33 0,-18 -15,-33 -33,-33 -18,0 -33,15 -33,33 0,18 15,33 33,33z"/>
  <path class="fil1" d="M733 4226c18,0 33,-15 33,-33 0,-18 -15,-33 -33,-33 -18,0 -33,15 -33,33 0,18 15,33 33,33z"/>
  <path class="fil1" d="M966 4226c18,0 33,-15 33,-33 0,-18 -15,-33 -33,-33 -18,0 -33,15 -33,33 0,18 15,33 33,33z"/>
  <path class="fil1" d="M1200 4226c18,0 33,-15 33,-33 0,-18 -15,-33 -33,-33 -18,0 -33,15 -33,33 0,18 15,33 33,33z"/>
  <path class="fil1" d="M33 4459c18,0 33,-15 33,-33 0,-18 -15,-33 -33,-33 -18,0 -33,15 -33,33 0,18 15,33 33,33z"/>
  <path class="fil1" d="M267 4459c18,0 33,-15 33,-33 0,-18 -15,-33 -33,-33 -18,0 -33,15 -33,33 0,18 15,33 33,33z"/>
  <path class="fil1" d="M500 4459c18,0 33,-15 33,-33 0,-18 -15,-33 -33,-33 -18,0 -33,15 -33,33 0,18 15,33 33,33z"/>
  <path class="fil1" d="M733 4459c18,0 33,-15 33,-33 0,-18 -15,-33 -33,-33 -18,0 -33,15 -33,33 0,18 15,33 33,33z"/>
  <path class="fil1" d="M966 4459c18,0 33,-15 33,-33 0,-18 -15,-33 -33,-33 -18,0 -33,15 -33,33 0,18 15,33 33,33z"/>
  <path class="fil1" d="M1200 4459c18,0 33,-15 33,-33 0,-18 -15,-33 -33,-33 -18,0 -33,15 -33,33 0,18 15,33 33,33z"/>
  <path class="fil1" d="M7730 1428c18,0 33,-15 33,-33 0,-18 -15,-33 -33,-33 -18,0 -33,15 -33,33 0,18 15,33 33,33z"/>
  <path class="fil1" d="M7964 1428c18,0 33,-15 33,-33 0,-18 -15,-33 -33,-33 -18,0 -33,15 -33,33 0,18 15,33 33,33z"/>
  <path class="fil1" d="M8197 1428c18,0 33,-15 33,-33 0,-18 -15,-33 -33,-33 -18,0 -33,15 -33,33 0,18 15,33 33,33z"/>
  <path class="fil1" d="M7730 1662c18,0 33,-15 33,-33 0,-18 -15,-33 -33,-33 -18,0 -33,15 -33,33 0,18 15,33 33,33z"/>
  <path class="fil1" d="M7964 1662c18,0 33,-15 33,-33 0,-18 -15,-33 -33,-33 -18,0 -33,15 -33,33 0,18 15,33 33,33z"/>
  <path class="fil1" d="M8197 1662c18,0 33,-15 33,-33 0,-18 -15,-33 -33,-33 -18,0 -33,15 -33,33 0,18 15,33 33,33z"/>
  <path class="fil1" d="M2609 206c18,0 33,-15 33,-33 0,-18 -15,-33 -33,-33 -18,0 -33,15 -33,33 0,18 15,33 33,33z"/>
  <path class="fil1" d="M2842 206c18,0 33,-15 33,-33 0,-18 -15,-33 -33,-33 -18,0 -33,15 -33,33 0,18 15,33 33,33z"/>
  <path class="fil1" d="M3075 206c18,0 33,-15 33,-33 0,-18 -15,-33 -33,-33 -18,0 -33,15 -33,33 0,18 15,33 33,33z"/>
  <path class="fil1" d="M2609 440c18,0 33,-15 33,-33 0,-18 -15,-33 -33,-33 -18,0 -33,15 -33,33 0,18 15,33 33,33z"/>
  <path class="fil1" d="M2842 440c18,0 33,-15 33,-33 0,-18 -15,-33 -33,-33 -18,0 -33,15 -33,33 0,18 15,33 33,33z"/>
  <path class="fil1" d="M3075 440c18,0 33,-15 33,-33 0,-18 -15,-33 -33,-33 -18,0 -33,15 -33,33 0,18 15,33 33,33z"/>
  <path class="fil1" d="M11157 3759c18,0 33,-15 33,-33 0,-18 -15,-33 -33,-33 -18,0 -33,15 -33,33 0,18 15,33 33,33z"/>
  <path class="fil1" d="M11157 3992c18,0 33,-15 33,-33 0,-18 -15,-33 -33,-33 -18,0 -33,15 -33,33 0,18 15,33 33,33z"/>
  <path class="fil1" d="M11157 4226c18,0 33,-15 33,-33 0,-18 -15,-33 -33,-33 -18,0 -33,15 -33,33 0,18 15,33 33,33z"/>
  <path class="fil1" d="M11157 4460c18,0 33,-15 33,-33 0,-18 -15,-33 -33,-33 -18,0 -33,15 -33,33 0,18 15,33 33,33z"/>
  <path class="fil1" d="M11157 4693c18,0 33,-15 33,-33 0,-18 -15,-33 -33,-33 -18,0 -33,15 -33,33 0,18 15,33 33,33z"/>
  <path class="fil1" d="M11157 4927c18,0 33,-15 33,-33 0,-18 -15,-33 -33,-33 -18,0 -33,15 -33,33 0,18 15,33 33,33z"/>
  <path class="fil1" d="M11157 5160c18,0 33,-15 33,-33 0,-18 -15,-33 -33,-33 -18,0 -33,15 -33,33 0,18 15,33 33,33z"/>
  <path class="fil1" d="M10923 3759c18,0 33,-15 33,-33 0,-18 -15,-33 -33,-33 -18,0 -33,15 -33,33 0,18 15,33 33,33z"/>
  <path class="fil1" d="M10923 3992c18,0 33,-15 33,-33 0,-18 -15,-33 -33,-33 -18,0 -33,15 -33,33 0,18 15,33 33,33z"/>
  <path class="fil1" d="M10923 4226c18,0 33,-15 33,-33 0,-18 -15,-33 -33,-33 -18,0 -33,15 -33,33 0,18 15,33 33,33z"/>
  <path class="fil1" d="M10923 4460c18,0 33,-15 33,-33 0,-18 -15,-33 -33,-33 -18,0 -33,15 -33,33 0,18 15,33 33,33z"/>
  <path class="fil1" d="M10923 4693c18,0 33,-15 33,-33 0,-18 -15,-33 -33,-33 -18,0 -33,15 -33,33 0,18 15,33 33,33z"/>
  <path class="fil1" d="M10923 4927c18,0 33,-15 33,-33 0,-18 -15,-33 -33,-33 -18,0 -33,15 -33,33 0,18 15,33 33,33z"/>
  <path class="fil1" d="M10923 5160c18,0 33,-15 33,-33 0,-18 -15,-33 -33,-33 -18,0 -33,15 -33,33 0,18 15,33 33,33z"/>
  <path class="fil1" d="M10690 3759c18,0 33,-15 33,-33 0,-18 -15,-33 -33,-33 -18,0 -33,15 -33,33 0,18 15,33 33,33z"/>
  <path class="fil1" d="M10690 3992c18,0 33,-15 33,-33 0,-18 -15,-33 -33,-33 -18,0 -33,15 -33,33 0,18 15,33 33,33z"/>
  <path class="fil1" d="M10690 4226c18,0 33,-15 33,-33 0,-18 -15,-33 -33,-33 -18,0 -33,15 -33,33 0,18 15,33 33,33z"/>
  <path class="fil1" d="M10690 4460c18,0 33,-15 33,-33 0,-18 -15,-33 -33,-33 -18,0 -33,15 -33,33 0,18 15,33 33,33z"/>
  <path class="fil1" d="M10690 4693c18,0 33,-15 33,-33 0,-18 -15,-33 -33,-33 -18,0 -33,15 -33,33 0,18 15,33 33,33z"/>
  <path class="fil1" d="M10690 4927c18,0 33,-15 33,-33 0,-18 -15,-33 -33,-33 -18,0 -33,15 -33,33 0,18 15,33 33,33z"/>
  <path class="fil1" d="M10690 5160c18,0 33,-15 33,-33 0,-18 -15,-33 -33,-33 -18,0 -33,15 -33,33 0,18 15,33 33,33z"/>
  <path class="fil1" d="M10457 3759c18,0 33,-15 33,-33 0,-18 -15,-33 -33,-33 -18,0 -33,15 -33,33 0,18 15,33 33,33z"/>
  <path class="fil1" d="M10457 3992c18,0 33,-15 33,-33 0,-18 -15,-33 -33,-33 -18,0 -33,15 -33,33 0,18 15,33 33,33z"/>
  <path class="fil1" d="M10457 4226c18,0 33,-15 33,-33 0,-18 -15,-33 -33,-33 -18,0 -33,15 -33,33 0,18 15,33 33,33z"/>
  <path class="fil1" d="M10457 4460c18,0 33,-15 33,-33 0,-18 -15,-33 -33,-33 -18,0 -33,15 -33,33 0,18 15,33 33,33z"/>
  <path class="fil1" d="M10457 4693c18,0 33,-15 33,-33 0,-18 -15,-33 -33,-33 -18,0 -33,15 -33,33 0,18 15,33 33,33z"/>
  <path class="fil1" d="M10457 4927c18,0 33,-15 33,-33 0,-18 -15,-33 -33,-33 -18,0 -33,15 -33,33 0,18 15,33 33,33z"/>
  <path class="fil1" d="M10457 5160c18,0 33,-15 33,-33 0,-18 -15,-33 -33,-33 -18,0 -33,15 -33,33 0,18 15,33 33,33z"/>
 </g>
</svg>
