<?xml version="1.0" encoding="UTF-8"?>
<!DOCTYPE svg PUBLIC "-//W3C//DTD SVG 1.1//EN" "http://www.w3.org/Graphics/SVG/1.1/DTD/svg11.dtd">
<!-- Creator: CorelDRAW X6 -->
<svg xmlns="http://www.w3.org/2000/svg" xml:space="preserve" width="32px" height="32px" version="1.1" style="shape-rendering:geometricPrecision; text-rendering:geometricPrecision; image-rendering:optimizeQuality; fill-rule:evenodd; clip-rule:evenodd"
viewBox="0 0 320 320"
 xmlns:xlink="http://www.w3.org/1999/xlink">
 <defs>
  <style type="text/css">
   <![CDATA[
    .str1 {stroke:#9B62A7;stroke-width:8.84026}
    .str0 {stroke:#9B62A7;stroke-width:23.3937;stroke-linecap:round;stroke-linejoin:round}
    .fil0 {fill:none}
    .fil1 {fill:#9B62A7}
   ]]>
  </style>
 </defs>
 <g id="Layer_x0020_1">
  <metadata id="CorelCorpID_0Corel-Layer"/>
  <line class="fil0 str0" x1="160" y1="160" x2="160" y2= "89" />
  <path class="fil0 str0" d="M20 197l0 -75c0,-25 14,-48 35,-61l71 -41c22,-13 48,-13 71,0l71 41c22,13 35,36 35,61l0 75c0,25 -14,48 -35,61l-71 41c-22,13 -48,13 -71,0l-71 -41c-22,-13 -35,-36 -35,-61l0 0z"/>
  <ellipse class="fil1 str1" cx="160" cy="225" rx="12" ry="11"/>
 </g>
</svg>
