<?xml version="1.0" encoding="UTF-8"?>
<!DOCTYPE svg PUBLIC "-//W3C//DTD SVG 1.1//EN" "http://www.w3.org/Graphics/SVG/1.1/DTD/svg11.dtd">
<!-- Creator: CorelDRAW X6 -->
<svg xmlns="http://www.w3.org/2000/svg" xml:space="preserve" width="20px" height="20px" version="1.1" style="shape-rendering:geometricPrecision; text-rendering:geometricPrecision; image-rendering:optimizeQuality; fill-rule:evenodd; clip-rule:evenodd"
viewBox="0 0 200 200"
 xmlns:xlink="http://www.w3.org/1999/xlink">
 <defs>
  <style type="text/css">
   <![CDATA[
    .fil0 {fill:#FEFEFE}
    .fil1 {fill:#865190}
   ]]>
  </style>
 </defs>
 <g id="Layer_x0020_1">
  <metadata id="CorelCorpID_0Corel-Layer"/>
  <path class="fil0" d="M100 -1l0 0c-56,0 -101,45 -101,101 0,22 7,42 19,59l-13 37 39 -12c16,11 35,17 55,17 56,0 101,-45 101,-101 0,-56 -45,-101 -101,-101z"/>
  <path class="fil1" d="M159 142c-2,7 -12,13 -20,14 -5,1 -12,2 -35,-8 -30,-12 -49,-42 -50,-44 -1,-2 -12,-16 -12,-30 0,-14 7,-22 10,-25 2,-2 6,-4 10,-4 1,0 2,0 3,0 3,0 4,0 6,5 2,6 8,20 9,22 1,1 1,4 0,5 -1,2 -2,3 -3,5 -1,2 -3,3 -4,5 -1,2 -3,3 -1,6 2,3 8,13 16,20 11,10 20,13 24,15 2,1 5,1 7,-1 2,-2 5,-6 8,-10 2,-3 5,-3 7,-2 3,1 17,8 20,10 3,1 5,2 6,3 1,1 1,7 -2,14z"/>
 </g>
</svg>
